<svg width="594" height="470" viewBox="0 0 594 470" fill="none" xmlns="http://www.w3.org/2000/svg">
<path d="M75.3783 280.37C75.3783 280.37 17.3233 190.468 64.0784 112.521C64.0784 112.521 89.1794 61.5264 175.268 87.4743C175.268 87.4743 210.545 103.296 251.044 107.795C268.796 109.775 286.764 107.852 303.701 102.161C320.638 96.4695 336.138 87.1459 349.125 74.8374C367.298 57.5641 407.728 30.9558 471.957 51.6756C471.957 51.6756 554.75 82.088 546.877 201.46C546.877 201.46 543.539 331.606 408.523 379.738L174.316 372.158L75.3783 280.37Z" fill="#F5A824"/>
<path opacity="0.7" d="M75.3783 280.37C75.3783 280.37 17.3233 190.468 64.0784 112.521C64.0784 112.521 89.1794 61.5264 175.268 87.4743C175.268 87.4743 210.545 103.296 251.044 107.795C268.796 109.775 286.764 107.852 303.701 102.161C320.638 96.4695 336.138 87.1459 349.125 74.8374C367.298 57.5641 407.728 30.9558 471.957 51.6756C471.957 51.6756 554.75 82.088 546.877 201.46C546.877 201.46 543.539 331.606 408.523 379.738L174.316 372.158L75.3783 280.37Z" fill="white"/>
<path d="M179.791 58.6372C179.791 58.6372 181.161 38.6879 224.264 45.168C226.893 45.5596 229.499 46.097 232.069 46.7777C239.655 48.7795 262.186 53.5054 287.424 47.1973C294.726 45.3291 301.763 42.5392 308.366 38.8943C318.069 33.6249 339.771 23.7603 346.343 36.5279C346.343 36.5279 361.158 55.3765 320.988 73.0764C320.988 73.0764 292.043 105.731 218.782 90.7831C218.789 90.8037 175.755 79.467 179.791 58.6372Z" fill="#F5A824"/>
<path opacity="0.7" d="M179.791 58.6372C179.791 58.6372 181.161 38.6879 224.264 45.168C226.893 45.5596 229.499 46.097 232.069 46.7777C239.655 48.7795 262.186 53.5054 287.424 47.1973C294.726 45.3291 301.763 42.5392 308.366 38.8943C318.069 33.6249 339.771 23.7603 346.343 36.5279C346.343 36.5279 361.158 55.3765 320.988 73.0764C320.988 73.0764 292.043 105.731 218.782 90.7831C218.789 90.8037 175.755 79.467 179.791 58.6372Z" fill="white"/>
<path opacity="0.45" d="M471.957 265.278C496.932 265.278 517.177 244.954 517.177 219.883C517.177 194.812 496.932 174.488 471.957 174.488C446.983 174.488 426.737 194.812 426.737 219.883C426.737 244.954 446.983 265.278 471.957 265.278Z" fill="white"/>
<path d="M471.957 265.697C462.931 265.697 454.107 263.01 446.602 257.976C439.097 252.942 433.247 245.787 429.793 237.415C426.339 229.044 425.435 219.832 427.196 210.945C428.957 202.057 433.304 193.894 439.686 187.487C446.069 181.08 454.201 176.716 463.054 174.948C471.907 173.181 481.083 174.088 489.422 177.555C497.762 181.023 504.889 186.895 509.904 194.429C514.919 201.964 517.596 210.821 517.596 219.883C517.585 232.03 512.773 243.677 504.216 252.266C495.66 260.856 484.058 265.686 471.957 265.697V265.697ZM471.957 174.893C463.096 174.893 454.434 177.531 447.067 182.473C439.699 187.415 433.957 194.439 430.566 202.658C427.175 210.876 426.287 219.919 428.016 228.643C429.745 237.367 434.012 245.381 440.277 251.671C446.543 257.961 454.526 262.245 463.217 263.98C471.908 265.715 480.916 264.825 489.102 261.421C497.289 258.017 504.286 252.252 509.209 244.856C514.132 237.46 516.759 228.764 516.759 219.869C516.743 207.947 512.017 196.518 503.618 188.089C495.22 179.661 483.833 174.92 471.957 174.907V174.893Z" fill="#F5A824"/>
<path d="M471.293 195.366C467.509 195.366 463.88 196.875 461.204 199.561C458.529 202.246 457.026 205.889 457.026 209.688V214.345H485.553V209.688C485.553 205.891 484.051 202.249 481.377 199.563C478.703 196.877 475.075 195.367 471.293 195.366ZM480.427 213.568H461.925V209.316C461.925 206.853 462.9 204.491 464.635 202.75C466.37 201.008 468.723 200.03 471.176 200.03C473.63 200.03 475.983 201.008 477.718 202.75C479.453 204.491 480.427 206.853 480.427 209.316V213.568Z" fill="#F5A824"/>
<path d="M467.531 161.775C467.531 161.775 461.178 174.68 456.381 181.243C455.954 181.806 455.6 182.421 455.326 183.073C454.702 184.433 454.446 185.936 454.586 187.427C454.714 188.079 455.077 188.661 455.605 189.061C456.134 189.461 456.791 189.651 457.45 189.594C459.684 189.436 464.036 188.218 468.956 182.254C468.956 182.254 473.547 176.675 474.609 171.75C474.596 171.75 469.251 169.108 467.531 161.775Z" fill="#F5A824"/>
<path opacity="0.2" d="M465.098 166.522C465.098 166.522 471.265 172.025 468.942 178.409C468.942 178.409 466.037 184.222 463.049 187.606C463.049 187.606 471.025 182.949 474.596 171.75C471.023 169.49 468.483 165.905 467.531 161.775L465.098 166.522Z" fill="black"/>
<path d="M314.43 58.7129C335.228 58.761 374.911 58.7129 395.421 58.6372C397.043 58.6447 398.645 59.0018 400.118 59.6844C401.591 60.3669 402.901 61.359 403.96 62.5935C405.018 63.828 405.8 65.2763 406.253 66.8403C406.705 68.4043 406.818 70.0477 406.584 71.6593L384.34 231.061C383.873 234.571 382.132 237.784 379.449 240.083C376.766 242.383 373.332 243.606 369.806 243.519L285.622 241.077C284.414 241.034 283.229 240.737 282.143 240.204C281.058 239.671 280.096 238.915 279.32 237.985C278.545 237.054 277.973 235.971 277.642 234.804C277.311 233.637 277.228 232.413 277.399 231.212L299.266 72.0995C299.75 68.4032 301.554 65.0089 304.343 62.5469C307.132 60.085 310.717 58.7227 314.43 58.7129Z" fill="#29274E"/>
<path d="M308.695 63.3769C329.485 63.4182 369.176 63.3769 389.678 63.3012C391.294 63.292 392.893 63.6324 394.366 64.2994C395.839 64.9664 397.152 65.9442 398.214 67.1663C399.277 68.3884 400.065 69.826 400.524 71.3813C400.983 72.9365 401.103 74.5728 400.876 76.1788L378.605 233.888C378.111 237.376 376.356 240.559 373.674 242.83C370.992 245.101 367.571 246.301 364.064 246.202L279.88 243.787C278.678 243.754 277.498 243.466 276.415 242.943C275.332 242.419 274.371 241.673 273.595 240.752C272.819 239.831 272.245 238.755 271.911 237.596C271.577 236.437 271.49 235.221 271.657 234.026L293.516 76.5985C294.025 72.9244 295.844 69.5601 298.635 67.129C301.425 64.6979 305 63.3648 308.695 63.3769V63.3769Z" fill="#29274E"/>
<path opacity="0.2" d="M308.695 63.3769C329.485 63.4182 369.176 63.3769 389.678 63.3012C391.294 63.292 392.893 63.6324 394.366 64.2994C395.839 64.9664 397.152 65.9442 398.214 67.1663C399.277 68.3884 400.065 69.826 400.524 71.3813C400.983 72.9365 401.103 74.5728 400.876 76.1788L378.605 233.888C378.111 237.376 376.356 240.559 373.674 242.83C370.992 245.101 367.571 246.301 364.064 246.202L279.88 243.787C278.678 243.754 277.498 243.466 276.415 242.943C275.332 242.419 274.371 241.673 273.595 240.752C272.819 239.831 272.245 238.755 271.911 237.596C271.577 236.437 271.49 235.221 271.657 234.026L293.516 76.5985C294.025 72.9244 295.844 69.5601 298.635 67.129C301.425 64.6979 305 63.3648 308.695 63.3769V63.3769Z" fill="black"/>
<path d="M397.223 80.9048L375.98 230.098C375.028 237.314 369.21 242.618 362.446 242.412L282.655 241.806C281.498 241.74 280.372 241.407 279.364 240.833C278.357 240.26 277.494 239.46 276.844 238.497C275.354 236.441 274.696 233.895 275.001 231.371L295.798 83.4707C297.415 70.084 307.633 66.7958 314.739 66.8096C334.104 66.8577 367.716 68.0684 386.8 68.0134C393.214 68.0134 398.135 74.1014 397.223 80.9048Z" fill="white"/>
<path opacity="0.18" d="M314.766 66.8164C314.766 66.8164 300.074 69.8226 299.266 83.2368L279.112 237.693L276.844 238.497C275.354 236.441 274.696 233.895 275.001 231.371L295.798 83.4706C297.443 70.0909 307.681 66.8027 314.766 66.8164Z" fill="#F5A824"/>
<path opacity="0.3" d="M303.569 73.0764H395.579C395.579 73.0764 392.481 68.0409 386.828 68.0202L314.766 66.8164C314.766 66.8164 306.488 68.7907 303.569 73.0764Z" fill="#F5A824"/>
<path d="M315.218 151.491L320.015 121.76C321.254 117.178 323.571 112.963 326.77 109.467C329.97 105.972 333.958 103.299 338.401 101.673C345.671 98.921 353.956 100.07 359.801 105.209C363.228 108.201 366.085 112.7 366.38 119.393L361.542 152.454C361.542 152.454 359.486 170.615 339.682 175.967C332.699 177.851 325.141 176.125 320.132 170.89C316.452 167.044 313.656 160.97 315.218 151.491Z" fill="#F5A824"/>
<path opacity="0.2" d="M315.218 151.491L320.015 121.76C321.254 117.178 323.571 112.963 326.77 109.467C329.97 105.972 333.958 103.299 338.401 101.673C345.671 98.921 353.956 100.07 359.801 105.209C363.228 108.201 366.085 112.7 366.38 119.393L361.542 152.454C361.542 152.454 359.486 170.615 339.682 175.967C332.699 177.851 325.141 176.125 320.132 170.89C316.452 167.044 313.656 160.97 315.218 151.491Z" fill="black"/>
<path d="M352.277 189.085H309.634C305.595 189.085 302.322 192.371 302.322 196.425V199.624C302.322 203.678 305.595 206.964 309.634 206.964H352.277C356.315 206.964 359.589 203.678 359.589 199.624V196.425C359.589 192.371 356.315 189.085 352.277 189.085Z" fill="#F5A824"/>
<path d="M290.775 420.834V424.893L308.517 431.627V428.731L290.775 420.834Z" fill="#29274E"/>
<path d="M311.401 429.901V433.258L326.82 438.362C326.82 438.362 349.591 444.099 350.002 429.901H311.401Z" fill="#29274E"/>
<path d="M236.297 214.51L232.398 201.956C212.025 146.277 234.516 149.874 234.516 149.874C254.553 148.43 263.495 213.451 263.495 213.451C273.575 256.871 313.581 268.029 327.039 270.588C331.074 271.356 335.046 272.425 338.921 273.787C382.778 289.231 396.593 308.292 396.593 308.292C427.011 344.187 408.523 379.725 408.523 379.725C380.373 387.395 274.946 405.109 274.946 405.109C218.172 409.924 176.187 382.6 176.187 382.6C161.399 370.631 123.106 357.932 123.106 357.932C113.691 355.304 111.539 352.669 111.539 352.669L98.8964 341.663C96.5185 340.039 94.1544 338.32 91.8176 336.524L53.6762 292.182C58.0687 286.809 68.5463 279.063 92.6194 278.245C100.907 277.876 109.148 279.683 116.528 283.487C118.741 284.656 124.751 289.918 123.106 287.752C113.924 275.741 101.521 246.835 101.521 246.835C94.8396 232.231 89.8304 196.549 89.8304 196.549L84.828 169.576L85.1158 129.966C124.422 125.474 127.287 176.201 127.287 176.201C130.864 194.87 138.737 215.955 138.737 215.955C146.379 226.802 154.745 237.116 163.777 246.828C155.149 227.395 145.275 204.866 141.752 196.769C140.755 194.491 139.908 192.149 139.217 189.759C131.679 163.619 132.419 137.065 132.515 134.094L137.25 94.5597C138.938 94.3397 140.651 94.4142 142.314 94.7798C170.698 97.6484 170.698 140.753 170.698 140.753L198.368 113.924C198.865 113.777 199.371 113.662 199.883 113.58C207.66 112.315 212.519 119.772 215.356 127.022C217.517 132.59 218.677 138.499 218.782 144.474C219.673 186.856 235.763 213.65 236.277 214.483" fill="#F9B499"/>
<path d="M244.486 325.69C244.486 325.69 324.188 295.38 363.645 372.158C363.645 372.158 342.711 287.298 244.486 325.69Z" fill="#F7A48B"/>
<path d="M91.8245 336.531C73.6515 322.628 57.2464 304.743 52.244 299.109C51.7322 298.533 51.4159 297.809 51.3408 297.041C51.2657 296.274 51.4356 295.502 51.826 294.837C52.3707 293.903 52.9895 293.015 53.6762 292.182C53.6762 292.182 101.679 316.795 91.8245 336.531Z" fill="#F5A824"/>
<path d="M84.8965 169.617L79.6475 141.269C77.0229 130.014 85.1295 130.014 85.1295 130.014H85.1843L90.3854 155.887C91.8245 166.659 84.8965 169.617 84.8965 169.617Z" fill="#F5A824"/>
<path d="M132.515 134.094V133.819L129.884 101.487C130.884 96.5959 134.249 94.9862 137.23 94.5666L139.902 126.898C139.902 126.898 140.313 133.585 132.515 134.094Z" fill="#F5A824"/>
<path d="M100.157 243.519C100.157 243.519 134.9 296.385 173.795 310.783L219.968 329.508L189.316 322.016C189.316 322.016 163.578 316.994 123.106 287.752C123.106 287.752 108.435 265.395 100.157 243.519Z" fill="#F7A48B"/>
<path d="M170.739 135.442V120.439L185.705 126.809L187.158 137.581C187.158 137.581 176.844 139.886 170.739 135.442Z" fill="#F4BBA8"/>
<path d="M170.739 120.439V129.327C170.739 129.327 182.779 136.061 187.185 137.581L185.705 126.809L170.739 120.439Z" fill="#F49984"/>
<path d="M222.462 229.837C222.462 229.837 202.973 242.418 165.928 241.806C165.928 241.806 159.117 239.392 157.616 230.882C157.468 230.062 157.377 229.232 157.342 228.399L143.746 180.032C141.955 175.74 140.672 171.252 139.923 166.659C139.272 162.532 139.114 157.943 140.19 153.802C140.867 151.261 142.2 148.945 144.056 147.088C145.912 145.232 148.223 143.9 150.757 143.229L169.588 138.166C169.588 138.166 168.299 132.794 173.226 135.415C173.226 135.415 180.332 138.166 184.56 137.561C184.56 137.561 187.671 136.515 187.987 138.551V139.982C187.987 139.982 206.557 139.239 214.431 142.314C215.089 142.569 215.687 142.961 216.185 143.463C217.218 144.479 217.809 145.864 217.83 147.315C217.926 153.506 218.275 171.33 219.276 187.902C219.625 193.756 220.057 199.452 220.591 204.412C220.854 206.778 221.285 209.123 221.88 211.428V211.428C221.916 211.539 221.945 211.651 221.969 211.765C222.739 214.609 223.689 217.401 224.812 220.123C225.902 222.806 226.21 226.459 222.462 229.837Z" fill="#F5A824"/>
<path opacity="0.2" d="M169.615 138.166L165.147 139.363C165.147 139.363 171.102 144.481 184.793 141.668C184.8 141.668 172.198 141.42 169.615 138.166Z" fill="black"/>
<path opacity="0.2" d="M222.023 211.807C221.372 212.329 193.489 234.349 174.912 236.179C171.801 236.47 168.669 235.931 165.832 234.618L157.609 230.882C157.462 230.062 157.37 229.232 157.335 228.399L143.74 180.032C141.949 175.74 140.665 171.252 139.916 166.659C139.916 166.659 183.985 198.303 219.961 197.615C219.961 197.615 220.386 206.331 221.886 211.497L222.023 211.807Z" fill="black"/>
<path d="M297.443 138.166C297.443 138.166 286.013 207.996 271.033 209.53C271.033 209.53 263.173 209.784 254.032 204.714L219.282 187.916C219.091 184.806 218.933 181.649 218.782 178.539C218.152 165.043 217.912 152.323 217.837 147.308C217.816 145.857 217.225 144.472 216.192 143.456L216.363 143.284C216.363 143.284 223.044 143.002 231.172 154.476C231.172 154.476 251.729 175.884 263.413 180.988C263.413 180.988 281.189 143.002 282.203 132.835C282.203 132.835 289.275 133.481 293.804 135.325C295.654 136.047 297.073 136.99 297.443 138.166Z" fill="#F5A824"/>
<path opacity="0.3" d="M297.443 138.166C297.443 138.166 286.013 207.996 271.033 209.53C271.033 209.53 263.173 209.784 254.032 204.714L219.282 187.916C219.091 184.806 218.933 181.649 218.782 178.539C218.152 165.043 217.912 152.323 217.837 147.308C217.816 145.857 217.225 144.472 216.192 143.456L216.363 143.284C216.363 143.284 223.044 143.002 231.172 154.476C231.172 154.476 251.729 175.884 263.413 180.988C263.413 180.988 281.189 143.002 282.203 132.835C282.203 132.835 289.275 133.481 293.804 135.325C295.654 136.047 297.073 136.99 297.443 138.166Z" fill="white"/>
<path opacity="0.3" d="M297.443 138.166C297.443 138.166 286.013 207.996 271.033 209.53C271.033 209.53 263.173 209.784 254.032 204.714L219.282 187.916L218.782 178.539L246.912 196.982C256.3 202.279 263.927 195.421 263.927 195.421C268.724 188.707 270.019 196.535 270.019 196.535C278.653 203.153 293.804 135.311 293.804 135.311C295.654 136.047 297.073 136.99 297.443 138.166Z" fill="white"/>
<path opacity="0.2" d="M219.282 187.916L221.989 189.223L220.619 163.97C220.619 163.97 220.749 156.513 217.953 152.695L219.282 187.916Z" fill="black"/>
<path d="M297.443 138.166C297.443 138.166 304.645 113.663 300.424 105.436C300.33 105.259 300.184 105.116 300.007 105.026C299.829 104.935 299.628 104.901 299.431 104.929C299.233 104.957 299.049 105.045 298.904 105.181C298.758 105.317 298.657 105.495 298.615 105.69C298.387 106.878 298.275 108.085 298.279 109.295C298.268 110.765 297.948 112.216 297.34 113.553C296.941 114.492 296.43 115.379 295.819 116.194C295.819 116.194 299.129 102.34 295.373 99.437C295.373 99.437 293.414 98.1506 293.318 103.097C293.318 103.097 292.242 113.518 288.939 115.211C288.939 115.211 292.626 103 292.365 97.8961C292.349 97.6208 292.252 97.3565 292.085 97.1377C291.918 96.9188 291.689 96.7554 291.428 96.6687C291.167 96.5819 290.887 96.5758 290.622 96.6511C290.358 96.7265 290.123 96.8798 289.946 97.0912C288.404 98.9004 286.26 103.619 284.793 115.857C284.793 115.857 283.834 104.892 284.533 100.118C284.586 99.7911 284.531 99.4557 284.376 99.1635C284.22 98.8712 283.973 98.6386 283.673 98.5015C283.373 98.3645 283.036 98.3306 282.714 98.4052C282.392 98.4798 282.104 98.6587 281.894 98.9142C281.168 99.8222 280.421 101.618 279.839 104.933C279.684 105.761 279.617 106.603 279.64 107.444C279.708 110.196 279.887 116.917 280.085 120.384C280.085 120.384 279.112 115.224 274.912 114.406C274.912 114.406 272.746 114.151 275.693 118.87C275.693 118.87 282.148 128.838 282.244 132.807C282.21 132.807 295.586 133.887 297.443 138.166Z" fill="#F4BBA8"/>
<path d="M505.035 196.913C500.238 198.392 501.252 190.956 501.252 190.956C501.506 187.998 501.595 185.274 501.56 182.791C501.444 171.062 498.758 164.692 498.758 164.692C498.237 162.793 497.428 163.419 497.387 164.534C497.367 165.14 497.249 165.74 497.038 166.308C494.338 174.137 485.087 174.433 485.087 174.433C467.955 174.268 467.147 159.56 467.147 159.56C459.575 160.723 455.95 153.775 455.95 153.775L466.489 153.61C466.489 149.806 471.587 146.008 471.587 146.008C470.087 134.279 453.64 122.867 453.64 122.867L452.914 122.496C429.567 110.423 428.121 100.063 428.121 100.063C427.658 98.4697 427.301 96.8472 427.052 95.2063C426.68 92.8696 426.627 90.4927 426.895 88.1416C427.306 84.3753 428.88 80.8324 431.397 78.0087C435.413 73.5166 441.066 71.5355 444.465 70.7031C445.873 70.3947 447.321 70.3157 448.755 70.4692C451.29 70.6687 449.522 67.5112 449.522 67.5112L439.49 54.7781C435.543 48.6694 437.523 46.021 437.523 46.021C441.148 42.5815 445.26 47.3487 445.26 47.3487L458.163 58.5203L462.049 61.891C471.759 70.8338 470.272 74.2733 470.272 74.2733C496.065 84.9428 501.992 120.604 502.773 126.107C502.843 126.611 502.965 127.107 503.137 127.586C510.284 147.817 511.092 180.472 511.092 180.472C511.6 194.127 505.035 196.913 505.035 196.913Z" fill="#E6E7E8"/>
<path opacity="0.3" d="M505.035 196.913C500.238 198.392 501.252 190.956 501.252 190.956C501.506 187.998 501.595 185.274 501.561 182.791C510.325 183.1 505.562 155.013 505.562 155.013C501.848 128.714 494.653 110.058 491.617 103.014C490.728 100.928 489.652 98.9276 488.404 97.0362C476.754 79.6253 457.375 70.7719 457.375 70.7719H461.178C461.628 70.7814 462.072 70.6799 462.473 70.4763C462.875 70.2726 463.22 69.9731 463.478 69.6041C463.737 69.2351 463.901 68.8079 463.956 68.3602C464.012 67.9124 463.957 67.4579 463.796 67.0366C462.357 63.37 458.136 58.5203 458.136 58.5203L462.021 61.891C471.731 70.8338 470.244 74.2733 470.244 74.2733C496.037 84.9428 501.965 120.604 502.746 126.107C502.816 126.611 502.938 127.107 503.109 127.586C510.256 147.817 511.065 180.472 511.065 180.472C511.6 194.127 505.035 196.913 505.035 196.913Z" fill="#F5A824"/>
<path opacity="0.3" d="M475.178 172.094C475.178 172.094 500.999 174.309 492.885 151.56C492.885 151.56 496.723 154.311 497.394 164.534C497.394 164.534 497.024 172.871 485.06 174.433C485.094 174.433 480.551 175.079 475.178 172.094Z" fill="#F5A824"/>
<path d="M483.963 155.192C482.963 156.623 479.523 161.466 477.508 163.447C477.438 163.513 477.39 163.598 477.368 163.692C477.346 163.786 477.352 163.884 477.384 163.974C477.417 164.065 477.475 164.144 477.552 164.202C477.629 164.259 477.721 164.294 477.816 164.3C480.057 164.479 485.066 164.472 488.554 161.5C488.554 161.5 490.466 156.444 484.737 154.882C484.592 154.847 484.44 154.858 484.301 154.913C484.162 154.969 484.044 155.066 483.963 155.192V155.192Z" fill="#F5A824"/>
<path d="M489.777 128.892C494.202 128.374 497.128 122.27 496.314 115.259C495.5 108.247 491.253 102.983 486.828 103.501C482.404 104.019 479.477 110.123 480.291 117.134C481.106 124.146 485.353 129.41 489.777 128.892Z" fill="#F5A824"/>
<path d="M452.955 122.496L450.824 121.367H450.762C429.519 109.797 428.149 100.09 428.149 100.09C427.686 98.4972 427.328 96.8748 427.08 95.2339C430.78 90.7969 436.673 87.5637 443.526 86.7588C451.249 85.8646 458.444 88.2103 463.09 92.5441C465.971 95.1215 467.827 98.6562 468.319 102.498C469.34 111.235 462.72 119.414 452.955 122.496Z" fill="#F5A824"/>
<path opacity="0.2" d="M452.955 122.496L450.824 121.367H450.762C474.897 112.81 463.481 93.1633 463.097 92.5441C465.975 95.1226 467.829 98.6571 468.319 102.498C469.34 111.235 462.72 119.414 452.955 122.496Z" fill="black"/>
<path d="M431.411 78.0087C428.897 80.8333 427.325 84.3761 426.915 88.1415C426.71 87.7838 421.433 78.9511 415.903 74.92C415.903 74.92 406.673 68.5018 411.792 66.8164C411.792 66.8164 416.89 63.3356 426.909 73.0764L431.411 78.0087Z" fill="#F5A824"/>
<path opacity="0.2" d="M431.411 78.0087C427.066 83.3124 426.909 88.1415 426.909 88.1415L425.908 86.5387C428.91 74.3008 415.389 66.2111 415.389 66.2111C415.389 66.2111 420.186 66.3762 425.052 71.3635L426.915 73.0764L431.411 78.0087Z" fill="black"/>
<path d="M434.316 75.3533C434.316 75.3533 427.073 62.3381 405.535 54.4066C405.535 54.4066 396.935 50.967 383.059 51.0152C381.399 51.0344 379.744 50.8449 378.132 50.4511C374.706 49.5775 370.046 47.4518 371.245 42.4301C371.245 42.4301 373.465 29.2636 400.93 36.8581C400.93 36.8581 430.321 43.6683 442.299 71.3085C442.327 71.3085 437.228 72.698 434.316 75.3533Z" fill="#F5A824"/>
<path opacity="0.2" d="M434.316 75.3534C436.648 73.4151 439.387 72.0322 442.327 71.3085C442.327 71.3085 436.845 56.0782 420.83 46.021C420.83 46.021 438.366 64.8697 432.761 73.0764L434.316 75.3534Z" fill="black"/>
<path opacity="0.45" d="M432.651 325.676C449.265 325.676 462.734 312.155 462.734 295.477C462.734 278.798 449.265 265.278 432.651 265.278C416.037 265.278 402.568 278.798 402.568 295.477C402.568 312.155 416.037 325.676 432.651 325.676Z" fill="white"/>
<path d="M432.651 326.068C426.618 326.068 420.721 324.272 415.706 320.908C410.69 317.543 406.78 312.761 404.472 307.167C402.163 301.572 401.559 295.415 402.736 289.476C403.913 283.536 406.818 278.081 411.084 273.799C415.349 269.516 420.784 266.6 426.701 265.419C432.617 264.237 438.75 264.844 444.323 267.161C449.896 269.479 454.66 273.403 458.011 278.438C461.363 283.474 463.152 289.393 463.152 295.449C463.143 303.567 459.926 311.35 454.208 317.09C448.49 322.83 440.737 326.059 432.651 326.068V326.068ZM432.651 265.67C426.784 265.67 421.048 267.416 416.17 270.688C411.292 273.961 407.49 278.612 405.244 284.053C402.999 289.495 402.412 295.482 403.556 301.259C404.701 307.036 407.526 312.342 411.675 316.507C415.823 320.671 421.109 323.507 426.864 324.657C432.618 325.806 438.583 325.216 444.003 322.962C449.424 320.708 454.057 316.891 457.316 311.994C460.576 307.097 462.316 301.339 462.316 295.449C462.299 287.559 459.168 279.997 453.607 274.42C448.047 268.843 440.511 265.706 432.651 265.697V265.67Z" fill="#F5A824"/>
<path d="M418.219 310.7C417.9 310.702 417.593 310.579 417.363 310.356C417.243 310.244 417.146 310.108 417.078 309.958C417.011 309.807 416.973 309.645 416.968 309.48C416.963 309.315 416.99 309.151 417.049 308.997C417.107 308.842 417.195 308.701 417.308 308.581L428.539 296.612C428.65 296.484 428.786 296.38 428.938 296.307C429.09 296.233 429.255 296.191 429.424 296.182C429.592 296.174 429.761 296.2 429.919 296.259C430.077 296.318 430.222 296.408 430.345 296.524C430.467 296.64 430.566 296.78 430.633 296.936C430.701 297.091 430.736 297.258 430.738 297.428C430.74 297.597 430.707 297.765 430.643 297.921C430.578 298.078 430.483 298.22 430.362 298.338L419.131 310.308C419.014 310.432 418.872 310.531 418.716 310.599C418.559 310.666 418.39 310.701 418.219 310.7V310.7Z" fill="#F5A824"/>
<path d="M435.639 280.253C433.721 280.252 431.845 280.822 430.25 281.89C428.654 282.959 427.411 284.479 426.676 286.257C425.941 288.036 425.748 289.993 426.121 291.882C426.494 293.771 427.417 295.506 428.773 296.868C430.129 298.23 431.857 299.157 433.738 299.534C435.619 299.91 437.569 299.717 439.341 298.981C441.113 298.244 442.628 296.997 443.694 295.396C444.759 293.795 445.328 291.913 445.328 289.987C445.328 287.407 444.308 284.932 442.491 283.107C440.674 281.281 438.209 280.255 435.639 280.253ZM435.639 297.451C434.163 297.451 432.72 297.012 431.493 296.188C430.266 295.365 429.309 294.195 428.744 292.827C428.18 291.458 428.032 289.951 428.32 288.498C428.608 287.045 429.318 285.71 430.362 284.663C431.406 283.615 432.735 282.901 434.183 282.612C435.631 282.323 437.131 282.472 438.495 283.039C439.858 283.606 441.024 284.566 441.844 285.798C442.664 287.03 443.101 288.478 443.101 289.96C443.105 290.945 442.914 291.922 442.541 292.834C442.167 293.746 441.618 294.574 440.925 295.272C440.231 295.97 439.408 296.524 438.5 296.901C437.593 297.279 436.621 297.473 435.639 297.472V297.451Z" fill="#F5A824"/>
<path d="M167.114 246.209C167.114 246.209 160.816 272.769 168.313 292.182C168.313 292.182 171.89 312.214 203.378 312.695L270.17 313.892C270.17 313.892 268.977 338.725 283.765 372.158L293.071 395.547C293.071 395.547 313.108 399.378 319.796 390.731L308.105 326.556L303.096 298.779C303.096 298.779 303.096 282.049 288.069 277.722L260.398 273.182L297.45 251.169C297.45 251.169 298.327 277.433 307.866 292.202L323.627 324.266C323.627 324.266 336.503 325.167 344.376 314.745C344.376 314.745 334.714 286.733 328.992 249.016L326.669 234.466C326.669 234.466 326.128 209.502 300.725 213.636L226.58 232.974L186.925 242.418L167.114 246.209Z" fill="#29274E"/>
<path opacity="0.2" d="M274.946 264.528L240.895 266.351C226.663 265.395 232.734 257.208 232.734 257.208C220.591 267.3 236.29 270.162 236.29 270.162L260.398 273.182L274.946 264.528Z" fill="black"/>
<path d="M293.071 395.547V398.759C293.071 398.759 312.943 404.489 319.275 397.438L316.644 393.483C316.644 393.483 310.374 398.257 293.071 395.547Z" fill="#F4BBA8"/>
<path d="M292.043 422.031C292.043 422.031 288.994 421.013 289.987 413.659L293.05 398.759C293.05 398.759 311.511 404.262 319.255 397.438C319.255 397.438 329.444 409.374 341.443 415.324C341.443 415.324 355.457 419.259 349.098 431.992C348.48 433.251 347.442 434.254 346.165 434.826C342.457 436.463 333.302 438.637 316.63 432.074L292.043 422.031Z" fill="#F5A824"/>
<path d="M343.561 315.749L346.117 317.813C346.117 317.813 341.245 326.756 326.93 329.06L325.299 324.307C328.767 324.23 332.182 323.43 335.326 321.956C338.47 320.483 341.274 318.369 343.561 315.749V315.749Z" fill="#F4BBA8"/>
<path d="M384.758 332.259C384.272 346.767 354.559 347.579 354.559 347.579C353.874 347.524 353.236 347.476 352.62 347.455C351.811 347.414 351.051 347.4 350.345 347.414C344.047 347.462 341.567 349.044 341.567 349.044C335.331 351.067 331.61 349.34 329.39 346.698C326.415 343.156 326.148 337.976 326.148 337.976C324.517 328.675 326.957 329.033 326.957 329.033C341.895 326.426 346.144 317.786 346.144 317.786C350.852 322.188 372.287 323.289 372.287 323.289C383.299 323.289 384.895 328.063 384.943 330.649C384.961 331.192 384.898 331.735 384.758 332.259V332.259Z" fill="#F5A824"/>
<path d="M351.153 351.17L338.133 353.116C330.911 353.591 329.657 347.372 329.362 346.698C331.582 349.34 335.303 351.067 341.539 349.044C341.539 349.044 344.02 347.462 350.317 347.414L351.153 351.17Z" fill="#29274E"/>
<path d="M353.216 350.915L352.62 347.476C353.236 347.476 353.881 347.544 354.559 347.599C354.559 347.599 384.272 346.788 384.758 332.28C384.889 331.754 384.942 331.211 384.916 330.67V330.67C393.29 350.048 353.216 350.915 353.216 350.915Z" fill="#29274E"/>
<path d="M189.371 137.554C197.686 137.554 204.426 126.34 204.426 112.507C204.426 98.6743 197.686 87.4605 189.371 87.4605C181.056 87.4605 174.316 98.6743 174.316 112.507C174.316 126.34 181.056 137.554 189.371 137.554Z" fill="#F4BBA8"/>
<path d="M176.529 125.584C176.529 125.584 168.491 127.263 166.518 110.168C166.518 110.168 158.24 88.231 171.52 88.4373C171.52 88.4373 176.892 76.055 191.029 81.971C191.029 81.971 199.794 73.7161 208.38 82.3287C208.38 82.3287 213.862 100.269 203.782 105.305C203.429 104.879 202.958 104.567 202.429 104.409C201.899 104.251 201.335 104.254 200.808 104.417C200.808 104.417 195.915 106.481 191.269 103.523C191.269 103.523 176.536 99.21 177.612 112.143L175.46 122.131C175.46 122.131 176.166 124.642 176.529 125.584Z" fill="#29274E"/>
<path d="M175.261 122.131C177.763 122.131 179.791 119.716 179.791 116.738C179.791 113.759 177.763 111.345 175.261 111.345C172.76 111.345 170.732 113.759 170.732 116.738C170.732 119.716 172.76 122.131 175.261 122.131Z" fill="#F4BBA8"/>
<path d="M224.34 227.642L226.224 230.779C226.537 231.295 226.637 231.914 226.501 232.503C226.365 233.092 226.005 233.604 225.498 233.93C219.831 237.541 201.185 247.537 169.19 246.904C168.6 246.899 168.02 246.749 167.501 246.467C166.982 246.184 166.54 245.779 166.214 245.285C165.888 244.791 165.687 244.224 165.63 243.635C165.573 243.045 165.662 242.45 165.887 241.903L165.928 241.806C165.928 241.806 201.466 241.338 222.462 229.837C223.252 229.264 223.895 228.512 224.34 227.642V227.642Z" fill="#F5A824"/>
<path opacity="0.2" d="M224.34 227.642L226.224 230.779C226.537 231.295 226.637 231.914 226.501 232.503C226.365 233.092 226.005 233.604 225.498 233.93C219.831 237.541 201.185 247.537 169.19 246.904C168.6 246.899 168.02 246.749 167.501 246.467C166.982 246.184 166.54 245.779 166.214 245.285C165.888 244.791 165.687 244.224 165.63 243.635C165.573 243.045 165.662 242.45 165.887 241.903L165.928 241.806C165.928 241.806 201.466 241.338 222.462 229.837C223.252 229.264 223.895 228.512 224.34 227.642V227.642Z" fill="black"/>
<path d="M313.032 150.094L317.87 120.384C319.109 115.803 321.426 111.587 324.625 108.092C327.825 104.596 331.813 101.923 336.256 100.297C343.526 97.5452 351.811 98.694 357.656 103.826C361.083 106.825 363.94 111.324 364.242 118.017L359.397 151.078C359.397 151.078 357.341 169.239 337.537 174.591C330.554 176.476 322.996 174.749 317.987 169.514C314.28 165.641 311.491 159.553 313.032 150.094Z" fill="#F5A824"/>
<path d="M333.878 170.154C324.284 168.895 317.795 158.514 319.33 146.971C319.378 146.6 319.433 146.228 319.501 145.864L322.681 127.29H322.647C322.472 127.263 322.299 127.219 322.133 127.16L318.946 145.774C316.842 157.593 323.058 168.73 332.83 170.649C333.138 170.711 333.446 170.759 333.761 170.8C338.894 171.488 344.157 169.686 348.378 165.792C348.267 165.611 348.177 165.417 348.111 165.215C343.999 169.046 338.88 170.821 333.878 170.154Z" fill="white"/>
<path d="M345.246 103.805C335.776 102.498 326.525 109.866 323.442 120.652C323.559 120.658 323.676 120.674 323.791 120.7H323.997C327.032 110.278 336.009 103.172 345.144 104.452C354.737 105.704 361.227 116.084 359.692 127.627C359.644 127.999 359.589 128.37 359.52 128.742L355.724 150.906C355.145 154.328 353.897 157.602 352.051 160.537C352.221 160.624 352.376 160.738 352.51 160.874C354.402 157.871 355.681 154.52 356.272 151.016L360.069 128.852C362.179 117.041 355.957 105.896 346.206 103.97C345.877 103.874 345.562 103.874 345.246 103.805Z" fill="white"/>
<path d="M344.465 108.338C347.505 108.78 350.309 110.233 352.428 112.466C352.537 112.275 352.661 112.094 352.798 111.922C350.607 109.622 347.712 108.126 344.575 107.671C340.994 107.229 337.373 108.077 334.358 110.065C334.428 110.269 334.481 110.478 334.515 110.691C337.446 108.741 340.975 107.906 344.465 108.338V108.338Z" fill="white"/>
<path d="M321.543 148.327C321.565 147.173 321.675 146.023 321.872 144.887L325.23 125.295C325.888 121.349 327.574 117.646 330.116 114.564C329.97 114.444 329.839 114.308 329.725 114.158C327.107 117.329 325.37 121.138 324.689 125.199L321.331 144.791C321.127 145.989 321.015 147.201 320.995 148.416C321.173 148.362 321.357 148.332 321.543 148.327V148.327Z" fill="white"/>
<path d="M356.156 116.896C356.004 117.039 355.836 117.164 355.656 117.268C357.383 121.187 357.894 125.538 357.122 129.753L353.771 149.345C351.866 159.993 343.424 167.43 334.529 166.288C331.029 165.775 327.856 163.943 325.655 161.163C325.482 161.287 325.293 161.386 325.093 161.459C327.369 164.439 330.712 166.413 334.413 166.962C343.616 168.145 352.353 160.454 354.285 149.434L357.643 129.842C358.455 125.475 357.937 120.963 356.156 116.896Z" fill="white"/>
<path d="M326.046 133.365L327.156 126.898C328.8 117.68 336.105 111.255 343.794 112.239C350.235 113.078 354.991 119.407 355.046 127.215C355.23 127.194 355.416 127.194 355.601 127.215V127.215C355.601 119.07 350.619 112.438 343.896 111.565C335.9 110.533 328.3 117.219 326.594 126.802L325.497 133.337C325.627 133.33 325.758 133.33 325.888 133.337L326.046 133.365Z" fill="white"/>
<path d="M341.155 161.658C339.266 162.382 337.225 162.618 335.221 162.346C327.923 161.411 322.941 153.52 324.093 144.715C324.127 144.419 324.175 144.123 324.23 143.834L324.915 139.934H324.737C324.611 139.914 324.487 139.884 324.367 139.845L323.681 143.766C322.064 152.853 326.84 161.417 334.344 162.896C334.591 162.945 334.83 162.986 335.07 163.013C337.194 163.299 339.356 163.042 341.354 162.264C341.266 162.07 341.199 161.867 341.155 161.658Z" fill="white"/>
<path d="M354.463 133.86L354.23 133.825L351.852 147.742C351.179 151.842 349.206 155.615 346.226 158.501C346.314 158.699 346.381 158.907 346.425 159.12C349.599 156.113 351.699 152.141 352.4 147.817L354.778 133.894L354.463 133.86Z" fill="white"/>
<path d="M347.987 117.419C346.595 116.379 344.964 115.707 343.245 115.465C336.448 114.592 329.986 120.281 328.533 128.419L326.073 142.789C325.93 143.637 325.846 144.495 325.819 145.355C325.999 145.201 326.197 145.069 326.409 144.963C326.436 144.271 326.507 143.582 326.621 142.899L329.088 128.529C330.459 120.755 336.626 115.328 343.129 116.146C344.755 116.381 346.296 117.022 347.611 118.01C347.721 117.804 347.847 117.606 347.987 117.419V117.419Z" fill="white"/>
<path d="M351.674 121.987C351.544 122.161 351.397 122.323 351.236 122.468C352.556 125.37 352.956 128.61 352.38 131.748L349.913 146.118C348.543 153.685 342.718 159.023 336.386 158.535C336.297 158.763 336.187 158.982 336.057 159.189C342.773 159.876 349.077 154.208 350.448 146.201L352.908 131.824C353.528 128.496 353.097 125.056 351.674 121.987V121.987Z" fill="white"/>
<path d="M340.237 120.012C340.279 119.779 340.338 119.549 340.415 119.324C338.917 119.511 337.481 120.043 336.222 120.879C336.379 121.01 336.518 121.163 336.633 121.333C337.729 120.646 338.957 120.196 340.237 120.012V120.012Z" fill="white"/>
<path d="M347.145 147.439C345.178 152.254 340.881 155.178 336.537 154.628C331.514 153.974 328.101 148.526 328.903 142.472C328.903 142.273 328.958 142.073 328.999 141.874L331.014 130.09C331.252 128.712 331.698 127.378 332.336 126.135C332.197 125.953 332.082 125.754 331.994 125.543C331.252 126.937 330.74 128.442 330.479 130.001L328.458 141.778C327.334 148.141 330.678 154.16 335.934 155.171C336.105 155.206 336.27 155.233 336.441 155.254C341.046 155.832 345.589 152.757 347.679 147.639C347.495 147.59 347.316 147.523 347.145 147.439V147.439Z" fill="white"/>
<path d="M350.023 132.766L349.605 135.215C349.753 135.198 349.902 135.198 350.05 135.215H350.167L350.578 132.807C351.475 127.669 349.447 122.619 345.61 120.425C345.595 120.657 345.56 120.887 345.507 121.113C349.029 123.273 350.852 127.951 350.023 132.766Z" fill="white"/>
<path d="M341.944 123.232C337.544 122.668 333.364 126.348 332.425 131.617L331.98 134.231C332.163 134.273 332.342 134.333 332.514 134.41L332.98 131.693C333.857 126.781 337.777 123.362 341.848 123.899C345.733 124.415 348.364 128.632 347.741 133.31C347.741 133.454 347.7 133.598 347.672 133.743L346.055 142.926C345.294 147.178 342.238 150.404 338.647 150.748C338.639 150.98 338.609 151.21 338.558 151.436C342.451 151.106 345.788 147.625 346.61 143.016L348.186 133.839C349.077 128.838 346.446 124.126 342.314 123.314C342.183 123.273 342.046 123.245 341.944 123.232Z" fill="white"/>
<path d="M335.68 130.331C335.796 130.336 335.91 130.352 336.023 130.379C336.544 129.505 337.3 128.796 338.204 128.334C339.109 127.872 340.124 127.675 341.135 127.765C341.718 127.843 342.278 128.042 342.779 128.35C342.869 128.148 342.977 127.954 343.102 127.772C342.54 127.414 341.909 127.18 341.251 127.084C339.017 126.802 336.777 128.026 335.42 130.276C335.508 130.287 335.595 130.306 335.68 130.331V130.331Z" fill="white"/>
<path d="M344.129 141.331C343.994 142.08 343.75 142.806 343.403 143.484C343.569 143.585 343.717 143.712 343.842 143.862C344.246 143.092 344.528 142.263 344.678 141.406L345.808 134.816C345.909 134.202 345.941 133.579 345.904 132.959C345.728 133.042 345.541 133.1 345.349 133.131C345.375 133.671 345.343 134.213 345.253 134.747L344.129 141.331Z" fill="white"/>
<path d="M339.086 146.827C338.679 146.885 338.266 146.885 337.859 146.827C335.118 146.449 333.268 143.463 333.748 140.161L333.789 139.872L334.303 136.894C334.12 136.849 333.942 136.782 333.775 136.694L333.241 139.796C332.597 143.429 334.515 146.854 337.524 147.439L337.798 147.48C338.252 147.543 338.714 147.543 339.168 147.48C339.127 147.265 339.099 147.046 339.086 146.827V146.827Z" fill="white"/>
<path d="M340.573 131.005C338.565 130.751 336.667 132.436 336.249 134.837L335.564 138.833C335.495 139.203 335.475 139.58 335.502 139.955C335.666 139.777 335.853 139.622 336.057 139.494C336.062 139.3 336.08 139.107 336.112 138.916L336.797 134.919C337.16 132.897 338.764 131.48 340.456 131.707C342.149 131.934 343.143 133.667 342.882 135.6C342.879 135.655 342.879 135.71 342.882 135.765L342.197 139.755C342.101 140.425 341.834 141.059 341.424 141.596C341.014 142.133 340.473 142.556 339.853 142.823C339.807 143.071 339.743 143.314 339.662 143.552C340.472 143.285 341.19 142.794 341.736 142.136C342.281 141.478 342.631 140.679 342.745 139.831L343.43 135.841C343.848 133.571 342.663 131.425 340.792 131.026L340.573 131.005Z" fill="white"/>
<path d="M336.139 134.548L330.527 150.266C330.464 150.441 330.444 150.629 330.469 150.814C330.494 150.998 330.563 151.174 330.67 151.326C330.777 151.477 330.919 151.601 331.084 151.686C331.248 151.771 331.431 151.815 331.617 151.814H341.847C342.002 151.814 342.154 151.783 342.296 151.723C342.438 151.663 342.567 151.575 342.674 151.464C342.781 151.353 342.865 151.221 342.921 151.077C342.977 150.933 343.003 150.779 342.999 150.624L342.498 134.541C342.498 134.541 347.432 131.033 346.103 125.859C345.808 124.801 345.19 123.862 344.335 123.175C343.481 122.488 342.434 122.086 341.34 122.028C340.329 121.978 339.319 122.141 338.375 122.507C337.431 122.874 336.573 123.434 335.858 124.153C335.127 124.852 334.556 125.701 334.184 126.643C333.812 127.585 333.65 128.597 333.707 129.609C333.738 130.558 333.971 131.49 334.391 132.342C334.81 133.194 335.407 133.946 336.139 134.548V134.548Z" fill="#29274E"/>
<path d="M350.722 187.124H309.065C305.027 187.124 301.753 190.411 301.753 194.464V197.663C301.753 201.717 305.027 205.003 309.065 205.003H350.722C354.76 205.003 358.033 201.717 358.033 197.663V194.464C358.033 190.411 354.76 187.124 350.722 187.124Z" fill="#E6E7E8"/>
<path d="M452.366 220.041V239.151C452.346 240.327 452.726 241.474 453.442 242.405C454.339 243.526 455.97 244.599 458.889 244.407H486.252C486.532 244.409 486.812 244.37 487.081 244.29C488.308 243.918 491.549 242.597 491.549 239.117V220.199C491.571 219.555 491.456 218.913 491.213 218.317C490.969 217.72 490.603 217.182 490.137 216.738C489.672 216.294 489.118 215.954 488.512 215.741C487.906 215.528 487.262 215.446 486.622 215.501H456.724C455.55 215.533 454.435 216.027 453.62 216.876C452.805 217.725 452.355 218.862 452.366 220.041V220.041Z" fill="#F5A824"/>
<path d="M454.134 216.436C454.134 216.436 455.244 212.398 463.385 212.206H481.441C481.441 212.206 486.841 211.985 489.198 216.106C488.378 215.768 487.507 215.57 486.622 215.521H456.724C456.252 215.479 455.777 215.539 455.33 215.696C454.883 215.854 454.475 216.107 454.134 216.436V216.436Z" fill="#F5A824"/>
<path opacity="0.2" d="M454.134 216.436C454.134 216.436 455.244 212.398 463.385 212.206H481.441C481.441 212.206 486.841 211.985 489.198 216.106C488.378 215.768 487.507 215.57 486.622 215.521H456.724C456.252 215.479 455.777 215.539 455.33 215.696C454.883 215.854 454.475 216.107 454.134 216.436V216.436Z" fill="black"/>
<path d="M475.062 228.592C475.973 227.991 476.663 227.107 477.027 226.075C477.392 225.044 477.41 223.921 477.079 222.878C476.748 221.835 476.086 220.929 475.194 220.299C474.303 219.669 473.23 219.349 472.141 219.388C471.051 219.428 470.004 219.823 469.159 220.516C468.315 221.208 467.719 222.159 467.463 223.222C467.207 224.286 467.305 225.405 467.741 226.408C468.178 227.411 468.929 228.243 469.881 228.777L468.154 240.231C468.133 240.387 468.146 240.546 468.193 240.697C468.24 240.848 468.319 240.987 468.425 241.103C468.53 241.22 468.66 241.312 468.806 241.373C468.951 241.434 469.107 241.462 469.264 241.455L476.117 241.125C476.269 241.118 476.418 241.078 476.554 241.008C476.689 240.938 476.809 240.84 476.903 240.72C476.998 240.6 477.066 240.462 477.103 240.313C477.14 240.165 477.145 240.01 477.117 239.859L475.062 228.592Z" fill="white"/>
<path d="M283.827 97.4214C278.592 95.6894 273.03 95.1904 267.573 95.963C267.478 95.9793 267.394 96.0315 267.337 96.1087C267.281 96.186 267.256 96.2822 267.268 96.3773C267.281 96.4724 267.329 96.559 267.404 96.619C267.478 96.679 267.573 96.7077 267.668 96.6991C272.999 95.9379 278.432 96.4204 283.546 98.1093C283.978 98.2538 284.231 97.5659 283.827 97.4214V97.4214Z" fill="#F5A824"/>
<path d="M287.897 101.858C284.056 99.8195 279.85 98.5648 275.523 98.1669C271.196 97.769 266.833 98.2357 262.687 99.5402C262.248 99.6777 262.522 100.359 262.954 100.228C267.015 98.9584 271.286 98.5101 275.521 98.9093C279.755 99.3084 283.869 100.547 287.623 102.553C288.027 102.766 288.308 102.079 287.904 101.865L287.897 101.858Z" fill="#F5A824"/>
<path d="M290.625 105.848C283.388 101.955 274.864 99.4439 266.641 100.95C263.998 101.43 261.452 102.34 259.103 103.647C258.698 103.867 258.966 104.555 259.37 104.335C267.333 99.9116 276.611 100.806 284.725 103.963C286.631 104.711 288.492 105.572 290.296 106.543C290.7 106.763 290.981 106.075 290.57 105.855L290.625 105.848Z" fill="#F5A824"/>
<path d="M292.605 110.161C284.957 104.239 274.946 101.611 265.537 103.97C262.426 104.753 259.45 106.003 256.711 107.678C256.321 107.912 256.588 108.6 256.985 108.366C261.529 105.562 266.729 104.01 272.061 103.867C276.83 103.813 281.549 104.855 285.855 106.915C288.099 107.967 290.221 109.266 292.18 110.787C292.543 111.069 292.982 110.485 292.619 110.203L292.605 110.161Z" fill="#F5A824"/>
<path d="M293.852 114.633C290.157 110.589 285.364 107.718 280.064 106.373C274.764 105.029 269.188 105.269 264.023 107.066C260.612 108.264 257.411 109.996 254.539 112.198C254.474 112.258 254.434 112.341 254.425 112.43C254.417 112.518 254.441 112.607 254.494 112.679C254.546 112.751 254.622 112.801 254.709 112.82C254.796 112.839 254.886 112.826 254.964 112.782C259.699 109.091 265.391 106.842 271.362 106.302C275.442 105.995 279.538 106.626 283.338 108.149C287.138 109.671 290.542 112.044 293.29 115.087C293.598 115.431 294.167 114.977 293.852 114.633V114.633Z" fill="#F5A824"/>
<path d="M277.022 108.07C272.834 107.348 268.532 107.691 264.509 109.068C260.078 110.655 256.097 113.299 252.908 116.772C252.586 117.109 253.148 117.556 253.463 117.219C259.63 110.677 268.244 107.32 276.913 108.806C277.365 108.882 277.461 108.118 277.008 108.07H277.022Z" fill="#F5A824"/>
<path d="M294.592 119.778C292.031 115.953 288.574 112.817 284.526 110.643C284.121 110.423 283.841 111.111 284.245 111.331C288.182 113.452 291.54 116.511 294.023 120.239C294.291 120.631 294.853 120.17 294.592 119.785V119.778Z" fill="#F5A824"/>
<path d="M294.702 125.357C291.872 118.891 286.76 113.663 280.257 111.393C277.149 110.333 273.849 109.965 270.585 110.314C267.321 110.663 264.172 111.721 261.357 113.415C257.664 115.684 254.526 118.757 252.175 122.406C251.914 122.798 252.469 123.252 252.73 122.86C256.725 116.82 262.652 112.26 269.656 111.166C272.756 110.701 275.919 110.909 278.932 111.775C281.945 112.641 284.738 114.146 287.123 116.188C290.112 118.773 292.472 122.011 294.023 125.653C294.063 125.744 294.136 125.816 294.228 125.853C294.32 125.89 294.423 125.888 294.513 125.849C294.604 125.81 294.676 125.736 294.713 125.644C294.749 125.552 294.748 125.449 294.709 125.357H294.702Z" fill="#F5A824"/>
<path d="M294.106 132.333C293.153 124.408 288.459 117.488 281.387 114.392C277.982 112.938 274.254 112.418 270.583 112.885C266.912 113.351 263.431 114.788 260.494 117.047C256.266 120.232 253.216 124.814 251.174 129.774C251.153 129.817 251.14 129.864 251.137 129.913C251.134 129.961 251.141 130.01 251.157 130.055C251.173 130.101 251.199 130.143 251.232 130.178C251.265 130.214 251.304 130.242 251.348 130.262C251.393 130.281 251.44 130.292 251.489 130.292C251.537 130.293 251.585 130.283 251.629 130.265C251.674 130.246 251.714 130.219 251.748 130.184C251.782 130.149 251.808 130.108 251.825 130.063C255.114 122.076 261.296 115.238 269.731 113.732C273.178 113.135 276.721 113.456 280.006 114.663C283.291 115.87 286.203 117.921 288.452 120.611C291.213 123.996 292.934 128.114 293.407 132.463C293.403 132.517 293.411 132.571 293.431 132.621C293.451 132.671 293.482 132.716 293.521 132.753C293.561 132.789 293.608 132.816 293.66 132.831C293.711 132.847 293.765 132.85 293.818 132.842C293.871 132.833 293.922 132.813 293.966 132.782C294.01 132.751 294.046 132.711 294.073 132.664C294.099 132.617 294.114 132.565 294.118 132.511C294.121 132.457 294.112 132.403 294.092 132.353L294.106 132.333Z" fill="#F5A824"/>
<path d="M252.86 135.009C253.84 129.581 256.067 124.229 260.158 120.563C263.387 117.675 267.545 116.053 271.869 115.995C276.04 115.946 280.116 117.244 283.498 119.696C287.036 122.266 289.552 126.012 290.597 130.269C291.735 134.981 290.755 139.714 289.405 144.316C289.178 145.044 289.063 145.803 289.062 146.565C289.062 147.04 289.747 146.93 289.747 146.462C289.808 145.411 290.023 144.375 290.385 143.387C290.666 142.362 290.926 141.324 291.145 140.285C291.49 138.731 291.719 137.154 291.831 135.566C291.902 134.149 291.808 132.73 291.55 131.335C290.761 126.852 288.416 122.794 284.93 119.882C281.611 117.126 277.499 115.513 273.198 115.279C268.789 115.027 264.432 116.348 260.898 119.008C256.65 122.248 254.046 127.215 252.675 132.45C252.476 133.261 252.305 134.08 252.154 134.899C252.14 134.947 252.137 134.998 252.144 135.047C252.152 135.097 252.17 135.145 252.197 135.187C252.224 135.229 252.26 135.265 252.302 135.292C252.344 135.319 252.392 135.336 252.442 135.343C252.491 135.35 252.542 135.346 252.59 135.332C252.638 135.318 252.682 135.293 252.72 135.26C252.757 135.227 252.788 135.186 252.808 135.141C252.829 135.095 252.84 135.045 252.839 134.995L252.86 135.009Z" fill="#F5A824"/>
<path d="M287.253 149.682C287.065 148.491 287.051 147.279 287.212 146.084C287.363 145.348 287.561 144.619 287.726 143.883C288.055 142.507 288.372 141.113 288.678 139.7C288.933 138.684 289.135 137.656 289.281 136.618C289.295 136.57 289.299 136.519 289.291 136.47C289.284 136.42 289.266 136.372 289.239 136.33C289.212 136.288 289.176 136.252 289.133 136.225C289.091 136.198 289.044 136.181 288.994 136.174C288.944 136.167 288.894 136.17 288.846 136.185C288.798 136.199 288.754 136.224 288.716 136.257C288.678 136.29 288.648 136.331 288.627 136.376C288.607 136.422 288.596 136.472 288.596 136.522C288.451 137.559 288.249 138.588 287.993 139.604C287.678 141.039 287.351 142.475 287.013 143.91C286.849 144.632 286.643 145.355 286.506 146.084C286.36 147.315 286.378 148.559 286.561 149.785C286.609 150.26 287.308 150.156 287.246 149.682H287.253Z" fill="#F5A824"/>
<path d="M255.293 136.997C256.437 129.271 260.226 121.416 267.751 118.795C270.576 117.844 273.612 117.72 276.505 118.438C279.398 119.155 282.028 120.684 284.087 122.846C286.576 125.537 288.1 128.984 288.418 132.642C288.459 133.117 289.165 133.014 289.103 132.539C288.829 129.271 287.607 126.155 285.589 123.576C283.572 120.997 280.846 119.067 277.749 118.024C274.659 117.047 271.35 117.01 268.239 117.92C265.129 118.83 262.357 120.645 260.274 123.135C256.999 126.939 255.327 131.934 254.594 136.894C254.58 136.942 254.576 136.993 254.584 137.042C254.591 137.092 254.609 137.14 254.636 137.182C254.663 137.224 254.699 137.26 254.742 137.287C254.784 137.314 254.831 137.331 254.881 137.338C254.931 137.345 254.981 137.341 255.029 137.327C255.077 137.313 255.121 137.288 255.159 137.255C255.197 137.222 255.227 137.181 255.248 137.136C255.268 137.09 255.279 137.04 255.279 136.99L255.293 136.997Z" fill="#F5A824"/>
<path d="M256.033 148.32C256.128 148.328 256.223 148.3 256.297 148.24C256.372 148.18 256.42 148.093 256.433 147.998C256.445 147.903 256.42 147.807 256.364 147.729C256.307 147.652 256.223 147.6 256.129 147.584C256.033 147.575 255.939 147.604 255.864 147.664C255.79 147.724 255.741 147.81 255.729 147.905C255.716 148 255.741 148.097 255.798 148.174C255.854 148.251 255.939 148.303 256.033 148.32Z" fill="#F5A824"/>
<path d="M285.211 151.408C284.286 144.997 287.376 138.827 286.972 132.415C286.855 129.64 285.832 126.981 284.06 124.848C282.331 122.874 280.096 121.413 277.598 120.625C273.747 119.352 269.375 119.324 265.736 121.409C262.378 123.342 260.179 126.575 258.623 130.152C256.296 135.79 255.306 141.894 255.731 147.983C255.731 148.457 256.458 148.347 256.416 147.873C256.058 142.481 256.814 137.073 258.637 131.989C259.904 128.59 261.713 125.213 264.592 123.046C267.771 120.631 271.561 120.06 275.371 120.817C280.709 121.877 285.423 125.632 286.163 131.542C287.006 138.276 283.518 144.763 284.498 151.491C284.528 151.565 284.582 151.628 284.652 151.667C284.721 151.707 284.802 151.722 284.881 151.71C284.961 151.698 285.033 151.66 285.088 151.602C285.143 151.543 285.177 151.468 285.184 151.388L285.211 151.408Z" fill="#F5A824"/>
<path d="M259.987 132.986C258.452 138.978 258.157 145.245 257.931 151.401C257.931 151.876 258.616 151.972 258.616 151.498C258.829 145.341 259.123 139.067 260.672 133.083C260.788 132.622 260.083 132.532 259.987 132.986Z" fill="#F5A824"/>
<path d="M283.381 153.204C281.23 150.37 281.805 146.504 282.785 143.264C283.827 139.824 285.218 136.384 284.663 132.697C283.744 126.63 278.742 121.987 272.842 122.007C271.265 122.001 269.703 122.317 268.251 122.937C266.8 123.557 265.489 124.467 264.4 125.612C264.078 125.956 264.639 126.403 264.955 126.066C269.101 121.636 276.316 121.739 280.483 125.887C282.546 127.968 283.811 130.714 284.053 133.64C284.368 137.403 282.627 140.883 281.723 144.44C280.942 147.529 280.846 151.058 282.819 153.658C283.1 154.029 283.662 153.575 283.381 153.204V153.204Z" fill="#F5A824"/>
<path d="M281.065 153.933C279.119 151.305 279.297 147.831 280.051 144.743C280.483 142.947 281.079 141.193 281.572 139.418C282.106 137.841 282.469 136.21 282.655 134.555C282.984 129.161 278.441 124.924 273.637 124.291C269.375 123.713 265.619 126.671 263.434 130.29C262.842 131.345 262.403 132.48 262.132 133.66C261.483 136.366 261.125 139.133 261.063 141.915C260.884 145.898 260.713 149.888 260.446 153.864C260.446 154.339 261.131 154.435 261.131 153.96C261.316 151.119 261.446 148.285 261.583 145.444C261.803 140.828 261.679 135.731 263.639 131.432C265.112 128.143 268.347 125.316 271.862 124.958C276.865 124.442 282.306 128.983 281.983 134.438C281.757 136.355 281.323 138.242 280.688 140.065C280.174 141.853 279.571 143.621 279.188 145.451C278.557 148.492 278.66 151.835 280.558 154.394C280.839 154.765 281.401 154.311 281.12 153.94L281.065 153.933Z" fill="#F5A824"/>
<path d="M279.311 155.887C276.529 151.333 277.255 145.905 278.838 140.993C279.681 138.366 281.127 135.614 280.64 132.739C280.433 131.732 280.014 130.782 279.411 129.952C278.808 129.121 278.036 128.43 277.145 127.923C275.342 126.881 273.22 126.541 271.184 126.97C269.147 127.399 267.34 128.566 266.106 130.248C264.964 132.116 264.2 134.192 263.858 136.357C263.496 138.149 263.24 139.962 263.091 141.785C262.673 146.504 262.447 151.635 263.742 156.231C263.872 156.691 264.523 156.396 264.427 155.942C263.29 151.938 263.427 147.474 263.742 143.332C263.989 139.631 264.393 135.662 265.894 132.25C266.308 131.286 266.912 130.416 267.671 129.693C268.429 128.97 269.326 128.408 270.306 128.043C271.286 127.677 272.331 127.514 273.375 127.565C274.42 127.615 275.444 127.877 276.385 128.336C277.413 128.813 278.296 129.555 278.945 130.487C279.594 131.419 279.985 132.507 280.078 133.64C280.229 136.391 278.708 139.143 277.947 141.709C276.494 146.627 276.07 151.883 278.811 156.361C279.057 156.76 279.619 156.306 279.373 155.907L279.311 155.887Z" fill="#F5A824"/>
<path d="M277.289 157.379C276.28 154.552 275.557 151.63 275.131 148.657C274.945 147.15 274.961 145.626 275.179 144.123C275.458 142.633 275.918 141.182 276.549 139.803C277.461 137.602 278.352 135.208 277.625 132.814C277.312 131.817 276.67 130.956 275.804 130.374C274.938 129.793 273.901 129.525 272.863 129.615C270.272 129.753 268.265 131.782 267.175 134.135C267.151 134.179 267.136 134.227 267.131 134.277C267.127 134.327 267.133 134.377 267.149 134.424C267.165 134.472 267.191 134.515 267.224 134.552C267.258 134.589 267.299 134.618 267.345 134.638C267.391 134.657 267.44 134.667 267.49 134.667C267.54 134.666 267.589 134.655 267.634 134.635C267.68 134.614 267.72 134.584 267.753 134.546C267.786 134.509 267.811 134.465 267.826 134.417C268.806 132.298 270.608 130.462 272.959 130.352C275.309 130.241 277.118 132.044 277.187 134.548C277.255 137.052 275.775 139.453 275.007 141.853C274.301 144.221 274.123 146.715 274.487 149.159C274.944 152.057 275.669 154.905 276.652 157.668C276.796 158.115 277.447 157.827 277.303 157.379H277.289Z" fill="#F5A824"/>
<path d="M267.339 146.737C267.339 151.03 268.593 155.096 269.628 159.189C269.745 159.643 270.444 159.539 270.313 159.079C269.306 155.068 268.004 151.044 268.025 146.834C268.025 146.359 267.339 146.263 267.339 146.737Z" fill="#F5A824"/>
<path d="M274.685 157.957C272.937 153.77 272.231 149.217 272.63 144.694C272.836 142.442 273.32 140.224 274.069 138.09C274.665 136.405 275.638 134.142 274.069 132.69C272.499 131.239 270.642 132.911 269.772 134.383C269.539 134.789 270.094 135.243 270.327 134.83C270.855 133.929 271.78 132.67 272.938 132.897C274.61 133.234 274.254 135.456 273.836 136.646C272.974 138.974 272.374 141.393 272.047 143.855C271.468 148.744 272.152 153.7 274.034 158.246C274.073 158.337 274.145 158.41 274.237 158.447C274.328 158.484 274.43 158.484 274.521 158.446C274.612 158.407 274.684 158.334 274.721 158.243C274.758 158.151 274.758 158.048 274.72 157.957H274.685Z" fill="#F5A824"/>
<path d="M272.732 158.219C269.772 151.051 270.108 143.085 272.376 135.676C272.513 135.222 271.862 134.933 271.725 135.387C269.395 142.954 269.039 151.154 272.081 158.508C272.123 158.59 272.194 158.653 272.28 158.683C272.366 158.714 272.46 158.711 272.544 158.674C272.628 158.637 272.694 158.569 272.729 158.484C272.764 158.399 272.765 158.304 272.732 158.219V158.219Z" fill="#F5A824"/>
<path d="M266.812 157.723C264.002 148.691 266.264 137.052 266.291 136.935L266.846 137.052C266.846 137.162 264.585 148.657 267.346 157.531L266.812 157.723Z" fill="#F5A824"/>
<path d="M269.224 135.635C267.936 138.438 267.269 141.49 267.271 144.577C267.271 145.052 267.956 144.942 267.956 144.474C267.962 141.51 268.612 138.582 269.861 135.896C269.886 135.852 269.9 135.804 269.905 135.754C269.909 135.704 269.903 135.654 269.887 135.607C269.871 135.559 269.846 135.516 269.812 135.479C269.778 135.443 269.737 135.413 269.691 135.393C269.645 135.374 269.596 135.364 269.546 135.364C269.496 135.365 269.447 135.376 269.402 135.397C269.357 135.417 269.316 135.447 269.283 135.485C269.25 135.522 269.225 135.566 269.21 135.614L269.224 135.635Z" fill="#F5A824"/>
<path d="M266.778 135.105L266.661 135.49C266.651 135.54 266.651 135.592 266.661 135.642C266.651 135.687 266.651 135.734 266.661 135.779C266.674 135.825 266.7 135.866 266.736 135.896C266.765 135.932 266.803 135.961 266.846 135.979H266.935C266.996 135.995 267.06 135.995 267.12 135.979L267.196 135.93C267.247 135.892 267.288 135.839 267.312 135.779L267.429 135.394C267.438 135.346 267.438 135.297 267.429 135.249C267.439 135.202 267.439 135.153 267.429 135.105C267.414 135.06 267.388 135.02 267.353 134.988C267.323 134.953 267.285 134.925 267.244 134.905H267.148C267.09 134.885 267.027 134.885 266.969 134.905L266.887 134.954C266.84 134.992 266.802 135.042 266.778 135.098V135.105Z" fill="#F5A824"/>
<path d="M263.344 126.527C262.167 127.618 261.223 128.938 260.569 130.407C260.536 130.492 260.538 130.587 260.573 130.672C260.608 130.757 260.674 130.825 260.758 130.862C260.841 130.899 260.936 130.902 261.022 130.871C261.108 130.84 261.179 130.777 261.22 130.695C261.821 129.339 262.691 128.12 263.776 127.111C264.119 126.795 263.687 126.203 263.344 126.527V126.527Z" fill="#F5A824"/>
<path d="M288.932 134.197V134.795C288.922 134.843 288.922 134.892 288.932 134.94C288.94 134.987 288.959 135.032 288.987 135.071C289.043 135.145 289.127 135.195 289.22 135.208C289.266 135.214 289.313 135.21 289.358 135.197C289.402 135.184 289.444 135.162 289.48 135.132C289.518 135.102 289.55 135.065 289.574 135.023C289.597 134.98 289.612 134.933 289.617 134.885V134.286C289.631 134.239 289.631 134.189 289.617 134.142C289.607 134.094 289.585 134.05 289.556 134.011C289.528 133.974 289.493 133.942 289.453 133.918C289.413 133.895 289.369 133.879 289.323 133.874C289.276 133.867 289.229 133.871 289.184 133.884C289.14 133.897 289.098 133.919 289.062 133.949C289.023 133.979 288.991 134.016 288.968 134.059C288.944 134.101 288.93 134.148 288.925 134.197H288.932Z" fill="#F5A824"/>
<path d="M283.21 109.996C281.737 109.298 280.193 108.763 278.605 108.4C278.42 108.352 278.228 108.545 278.208 108.724C278.196 108.818 278.22 108.914 278.276 108.991C278.332 109.067 278.416 109.12 278.509 109.136C280.033 109.49 281.515 110.007 282.929 110.677C283.34 110.884 283.614 110.203 283.21 109.989V109.996Z" fill="#F5A824"/>
<path d="M254.059 139.776C253.917 140.972 253.846 142.176 253.847 143.38C253.852 143.427 253.866 143.473 253.889 143.514C253.912 143.555 253.943 143.591 253.98 143.62C254.017 143.649 254.06 143.67 254.105 143.682C254.15 143.694 254.198 143.697 254.244 143.69C254.339 143.673 254.425 143.62 254.482 143.542C254.539 143.464 254.565 143.367 254.553 143.27C254.549 142.134 254.618 140.999 254.758 139.872C254.772 139.824 254.775 139.773 254.768 139.723C254.761 139.674 254.743 139.626 254.716 139.584C254.688 139.542 254.652 139.506 254.61 139.479C254.568 139.452 254.52 139.434 254.471 139.427C254.421 139.42 254.371 139.424 254.323 139.439C254.275 139.453 254.23 139.477 254.193 139.51C254.155 139.544 254.125 139.584 254.104 139.63C254.083 139.676 254.073 139.726 254.073 139.776H254.059Z" fill="#F5A824"/>
<path d="M251.674 137.176L251.531 137.863C251.523 137.912 251.525 137.961 251.537 138.008C251.548 138.055 251.57 138.1 251.599 138.139C251.627 138.176 251.661 138.208 251.702 138.231C251.742 138.255 251.786 138.27 251.832 138.276C251.878 138.284 251.925 138.282 251.97 138.27C252.015 138.258 252.056 138.237 252.092 138.207C252.164 138.142 252.212 138.055 252.23 137.96L252.373 137.272C252.381 137.225 252.38 137.177 252.369 137.13C252.358 137.084 252.337 137.04 252.309 137.002C252.281 136.963 252.246 136.931 252.205 136.906C252.164 136.882 252.119 136.866 252.072 136.859C252.026 136.852 251.979 136.856 251.934 136.869C251.889 136.882 251.847 136.904 251.812 136.935C251.739 136.996 251.691 137.082 251.674 137.176V137.176Z" fill="#F5A824"/>
<path d="M263.92 97.2632L265.661 96.706C265.748 96.6654 265.816 96.5929 265.852 96.5034C265.887 96.4139 265.888 96.3142 265.852 96.2245C265.817 96.1373 265.75 96.0676 265.664 96.0302C265.578 95.9929 265.481 95.991 265.393 96.025L263.653 96.5822C263.566 96.6228 263.497 96.6952 263.462 96.7847C263.426 96.8742 263.426 96.974 263.461 97.0637C263.496 97.1508 263.564 97.2206 263.65 97.2579C263.736 97.2953 263.833 97.2972 263.92 97.2632V97.2632Z" fill="#F5A824"/>
<path d="M293.414 133.984C293.592 135.357 293.555 136.75 293.304 138.111C293.29 138.159 293.287 138.21 293.294 138.26C293.301 138.31 293.319 138.357 293.346 138.399C293.374 138.441 293.41 138.477 293.452 138.504C293.494 138.531 293.542 138.549 293.591 138.556C293.641 138.563 293.691 138.559 293.739 138.545C293.787 138.53 293.832 138.506 293.869 138.473C293.907 138.44 293.937 138.399 293.958 138.353C293.979 138.307 293.989 138.258 293.989 138.207C294.247 136.789 294.286 135.339 294.106 133.908C294.11 133.854 294.103 133.8 294.084 133.749C294.064 133.699 294.034 133.653 293.995 133.616C293.955 133.579 293.908 133.552 293.857 133.535C293.805 133.519 293.751 133.515 293.698 133.523C293.644 133.531 293.594 133.551 293.549 133.582C293.505 133.612 293.468 133.653 293.441 133.7C293.414 133.747 293.399 133.799 293.395 133.853C293.391 133.907 293.4 133.961 293.42 134.011L293.414 133.984Z" fill="#F5A824"/>
<path d="M294.935 127.036C294.996 127.449 295.051 127.854 295.113 128.267C295.118 128.314 295.132 128.36 295.155 128.401C295.178 128.443 295.209 128.479 295.246 128.509C295.283 128.538 295.325 128.56 295.371 128.573C295.416 128.586 295.464 128.589 295.51 128.584C295.604 128.564 295.687 128.51 295.744 128.433C295.801 128.355 295.828 128.26 295.819 128.164L295.634 126.933C295.629 126.886 295.614 126.84 295.591 126.798C295.569 126.757 295.538 126.72 295.501 126.691C295.464 126.662 295.421 126.64 295.376 126.627C295.331 126.614 295.283 126.61 295.236 126.616C295.143 126.636 295.061 126.69 295.005 126.768C294.949 126.845 294.924 126.941 294.935 127.036V127.036Z" fill="#F5A824"/>
<path d="M245.562 148.32C241.991 153.102 239.118 158.372 237.031 163.97L247.995 174.075C247.995 174.075 252.593 168.647 254.422 163.97C255.278 162.637 256.475 161.559 257.888 160.85C259.301 160.141 260.878 159.826 262.454 159.938L267.812 160.447C268.012 160.467 268.213 160.434 268.397 160.352C268.58 160.27 268.738 160.141 268.857 159.979C268.976 159.817 269.051 159.626 269.074 159.426C269.098 159.226 269.069 159.023 268.991 158.838V158.838C268.888 158.589 268.702 158.384 268.463 158.26C265.923 157.041 263.168 156.34 260.357 156.196C260.303 156.196 260.252 156.177 260.211 156.141C260.171 156.106 260.145 156.057 260.139 156.004C260.132 155.951 260.145 155.897 260.175 155.852C260.205 155.808 260.25 155.776 260.302 155.763C261.782 155.316 264.996 154.738 270.403 155.605C270.659 155.646 270.921 155.623 271.167 155.538C271.412 155.453 271.633 155.308 271.809 155.117C271.985 154.926 272.112 154.694 272.177 154.441C272.243 154.189 272.245 153.925 272.184 153.672V153.672C272.127 153.441 272.018 153.227 271.866 153.044C271.714 152.862 271.523 152.717 271.307 152.619C269.45 151.773 264.174 149.716 259.315 151.113C259.315 151.113 259.274 148.87 269.745 149.049H272.15C272.604 149.049 273.04 148.868 273.361 148.545C273.683 148.223 273.863 147.785 273.863 147.329V147.329C273.864 146.893 273.7 146.472 273.403 146.153C273.107 145.833 272.7 145.639 272.266 145.609C267.544 145.27 262.804 145.27 258.082 145.609C258.026 145.614 257.971 145.599 257.925 145.568C257.879 145.536 257.846 145.49 257.831 145.436C257.815 145.382 257.819 145.325 257.841 145.274C257.863 145.223 257.902 145.181 257.951 145.155C259.904 144.158 264.119 142.245 268.278 141.716C268.682 141.672 269.055 141.479 269.325 141.176C269.596 140.872 269.745 140.479 269.745 140.072V140.072C269.745 139.843 269.699 139.616 269.608 139.406C269.518 139.196 269.385 139.007 269.219 138.851C269.052 138.695 268.855 138.575 268.64 138.498C268.425 138.422 268.197 138.391 267.97 138.407C263.502 138.716 251.688 140.333 245.562 148.32Z" fill="#F4BBA8"/>
<path d="M248.015 175.616C226.875 204.79 200.047 220.949 200.047 220.949C186.657 230.827 179.805 230.882 179.805 230.882C165.147 232.203 141.163 176.579 141.163 176.579C137.99 169.48 136.558 164.059 136.126 159.938C135.105 150.363 139.443 147.879 139.443 147.879C147.091 139.205 154.854 152.468 154.854 152.468L180.99 195.627C184.314 192.972 186.966 197.801 186.966 197.801C190.001 194.423 202.171 187.916 202.171 187.916C218.021 178.766 235.317 162.353 235.317 162.353C242.855 163.956 245.98 167.856 247.227 170.986C247.819 172.454 248.087 174.034 248.015 175.616Z" fill="#F5A824"/>
<path opacity="0.3" d="M248.015 175.616C226.875 204.79 200.047 220.949 200.047 220.949C186.657 230.827 179.805 230.882 179.805 230.882C165.147 232.203 141.163 176.579 141.163 176.579C137.99 169.48 136.558 164.059 136.126 159.938C135.105 150.363 139.443 147.879 139.443 147.879C147.091 139.205 154.854 152.468 154.854 152.468L180.99 195.627C184.314 192.972 186.966 197.801 186.966 197.801C190.001 194.423 202.171 187.916 202.171 187.916C218.021 178.766 235.317 162.353 235.317 162.353C242.855 163.956 245.98 167.856 247.227 170.986C247.819 172.454 248.087 174.034 248.015 175.616Z" fill="white"/>
<path opacity="0.3" d="M248.015 175.616C226.875 204.79 200.047 220.949 200.047 220.949C186.657 230.827 179.805 230.882 179.805 230.882C165.147 232.203 141.163 176.579 141.163 176.579C137.99 169.48 136.558 164.059 136.126 159.938C136.126 159.938 168.334 225.523 175.303 212.983C175.303 212.983 180.298 199.727 179.825 209.853C179.825 209.853 176.235 227.45 194.73 217.324C194.73 217.324 217.809 210.706 247.22 170.979C247.815 172.449 248.086 174.031 248.015 175.616V175.616Z" fill="white"/>
</svg>
