<svg width="811" height="909" viewBox="0 0 811 909" fill="none" xmlns="http://www.w3.org/2000/svg">
<rect width="811" height="909" fill="#FF9466"/>
<path d="M184.244 497.033C184.244 497.033 126.189 407.131 172.944 329.184C172.944 329.184 198.045 278.189 284.134 304.137C284.134 304.137 319.411 319.959 359.91 324.458C377.661 326.438 395.629 324.515 412.566 318.824C429.503 313.133 445.003 303.809 457.991 291.5C476.164 274.227 516.594 247.619 580.823 268.339C580.823 268.339 663.616 298.751 655.742 418.124C655.742 418.124 652.405 548.269 517.389 596.402L283.182 588.821L184.244 497.033Z" fill="#F5A824"/>
<path opacity="0.7" d="M184.244 497.033C184.244 497.033 126.189 407.131 172.944 329.184C172.944 329.184 198.045 278.189 284.134 304.137C284.134 304.137 319.411 319.959 359.91 324.458C377.661 326.438 395.629 324.515 412.566 318.824C429.503 313.133 445.003 303.809 457.991 291.5C476.164 274.227 516.594 247.619 580.823 268.339C580.823 268.339 663.616 298.751 655.742 418.124C655.742 418.124 652.405 548.269 517.389 596.402L283.182 588.821L184.244 497.033Z" fill="white"/>
<path d="M288.657 275.3C288.657 275.3 290.027 255.351 333.13 261.831C335.759 262.223 338.365 262.76 340.935 263.441C348.521 265.443 371.052 270.168 396.29 263.86C403.592 261.992 410.629 259.202 417.232 255.557C426.935 250.288 448.637 240.423 455.209 253.191C455.209 253.191 470.024 272.04 429.854 289.739C429.854 289.739 400.909 322.394 327.648 307.446C327.655 307.467 284.621 296.13 288.657 275.3Z" fill="#F5A824"/>
<path opacity="0.7" d="M288.657 275.3C288.657 275.3 290.027 255.351 333.13 261.831C335.759 262.223 338.365 262.76 340.935 263.441C348.521 265.443 371.052 270.168 396.29 263.86C403.592 261.992 410.629 259.202 417.232 255.557C426.935 250.288 448.637 240.423 455.209 253.191C455.209 253.191 470.024 272.04 429.854 289.739C429.854 289.739 400.909 322.394 327.648 307.446C327.655 307.467 284.621 296.13 288.657 275.3Z" fill="white"/>
<path opacity="0.45" d="M580.823 481.941C605.798 481.941 626.043 461.617 626.043 436.546C626.043 411.475 605.798 391.151 580.823 391.151C555.849 391.151 535.603 411.475 535.603 436.546C535.603 461.617 555.849 481.941 580.823 481.941Z" fill="white"/>
<path d="M580.823 482.36C571.797 482.36 562.973 479.673 555.468 474.639C547.963 469.605 542.113 462.45 538.659 454.078C535.205 445.707 534.301 436.495 536.062 427.608C537.823 418.721 542.17 410.557 548.552 404.15C554.935 397.743 563.067 393.379 571.92 391.611C580.773 389.844 589.949 390.751 598.288 394.218C606.627 397.686 613.755 403.558 618.77 411.092C623.785 418.627 626.461 427.484 626.461 436.546C626.45 448.693 621.639 460.34 613.082 468.929C604.526 477.519 592.924 482.349 580.823 482.36V482.36ZM580.823 391.557C571.962 391.557 563.3 394.194 555.932 399.136C548.565 404.078 542.822 411.102 539.431 419.321C536.04 427.539 535.153 436.582 536.882 445.306C538.611 454.031 542.878 462.044 549.143 468.334C555.409 474.624 563.392 478.908 572.083 480.643C580.773 482.378 589.782 481.488 597.968 478.084C606.155 474.68 613.152 468.915 618.075 461.519C622.998 454.123 625.625 445.427 625.625 436.532C625.609 424.61 620.883 413.181 612.484 404.752C604.085 396.324 592.699 391.583 580.823 391.57V391.557Z" fill="#F5A824"/>
<path d="M580.158 412.029C576.375 412.029 572.746 413.538 570.07 416.224C567.394 418.909 565.891 422.552 565.891 426.351V431.008H594.419V426.351C594.419 422.554 592.916 418.912 590.242 416.226C587.568 413.54 583.941 412.031 580.158 412.029ZM589.293 430.231H570.791V425.979C570.791 423.516 571.766 421.154 573.501 419.413C575.235 417.671 577.588 416.693 580.042 416.693C582.495 416.693 584.848 417.671 586.583 419.413C588.318 421.154 589.293 423.516 589.293 425.979V430.231Z" fill="#F5A824"/>
<path d="M576.396 378.438C576.396 378.438 570.044 391.343 565.247 397.906C564.82 398.469 564.466 399.084 564.192 399.736C563.567 401.096 563.312 402.599 563.452 404.09C563.58 404.742 563.942 405.324 564.471 405.724C565 406.124 565.657 406.314 566.316 406.257C568.55 406.099 572.902 404.881 577.822 398.917C577.822 398.917 582.413 393.338 583.475 388.413C583.461 388.413 578.116 385.771 576.396 378.438Z" fill="#F5A824"/>
<path opacity="0.2" d="M573.964 383.185C573.964 383.185 580.131 388.688 577.808 395.072C577.808 395.072 574.903 400.885 571.915 404.269C571.915 404.269 579.891 399.612 583.461 388.413C579.888 386.153 577.349 382.568 576.396 378.438L573.964 383.185Z" fill="black"/>
<path d="M423.296 275.376C444.094 275.424 483.777 275.376 504.287 275.3C505.909 275.308 507.511 275.665 508.984 276.347C510.457 277.03 511.767 278.022 512.825 279.257C513.884 280.491 514.666 281.939 515.118 283.503C515.571 285.067 515.684 286.711 515.45 288.322L493.206 447.724C492.739 451.234 490.997 454.447 488.315 456.746C485.632 459.046 482.198 460.269 478.672 460.182L394.488 457.74C393.28 457.697 392.095 457.4 391.009 456.867C389.923 456.334 388.962 455.578 388.186 454.648C387.41 453.717 386.839 452.634 386.508 451.467C386.177 450.3 386.094 449.076 386.265 447.876L408.131 288.763C408.616 285.066 410.42 281.672 413.209 279.21C415.998 276.748 419.582 275.386 423.296 275.376Z" fill="#29274E"/>
<path d="M417.561 280.04C438.351 280.081 478.041 280.04 498.544 279.964C500.16 279.955 501.759 280.295 503.232 280.962C504.705 281.629 506.017 282.607 507.08 283.829C508.143 285.051 508.93 286.489 509.39 288.044C509.849 289.6 509.969 291.236 509.741 292.842L487.47 450.551C486.977 454.039 485.222 457.222 482.54 459.493C479.858 461.764 476.437 462.964 472.929 462.865L388.745 460.45C387.544 460.417 386.363 460.129 385.28 459.606C384.197 459.083 383.237 458.336 382.461 457.415C381.684 456.494 381.111 455.418 380.777 454.259C380.443 453.101 380.356 451.884 380.522 450.689L402.382 293.262C402.891 289.587 404.709 286.223 407.5 283.792C410.291 281.361 413.865 280.028 417.561 280.04V280.04Z" fill="#29274E"/>
<path opacity="0.2" d="M417.561 280.04C438.351 280.081 478.041 280.04 498.544 279.964C500.16 279.955 501.759 280.295 503.232 280.962C504.705 281.629 506.017 282.607 507.08 283.829C508.143 285.051 508.93 286.489 509.39 288.044C509.849 289.6 509.969 291.236 509.741 292.842L487.47 450.551C486.977 454.039 485.222 457.222 482.54 459.493C479.858 461.764 476.437 462.964 472.929 462.865L388.745 460.45C387.544 460.417 386.363 460.129 385.28 459.606C384.197 459.083 383.237 458.336 382.461 457.415C381.684 456.494 381.111 455.418 380.777 454.259C380.443 453.101 380.356 451.884 380.522 450.689L402.382 293.262C402.891 289.587 404.709 286.223 407.5 283.792C410.291 281.361 413.865 280.028 417.561 280.04V280.04Z" fill="black"/>
<path d="M506.089 297.568L484.846 446.761C483.893 453.977 478.076 459.281 471.312 459.075L391.521 458.469C390.364 458.403 389.238 458.07 388.23 457.496C387.222 456.923 386.36 456.123 385.71 455.16C384.22 453.104 383.561 450.558 383.866 448.034L404.664 300.134C406.281 286.747 416.498 283.459 423.604 283.473C442.97 283.521 476.582 284.731 495.666 284.676C502.08 284.676 507 290.764 506.089 297.568Z" fill="white"/>
<path opacity="0.18" d="M423.632 283.479C423.632 283.479 408.94 286.486 408.131 299.9L387.978 454.356L385.71 455.16C384.22 453.104 383.561 450.558 383.866 448.034L404.664 300.134C406.309 286.754 416.546 283.466 423.632 283.479Z" fill="#F5A824"/>
<path opacity="0.3" d="M412.435 289.739H504.444C504.444 289.739 501.347 284.704 495.694 284.683L423.632 283.479C423.632 283.479 415.354 285.454 412.435 289.739Z" fill="#F5A824"/>
<path d="M424.084 368.154L428.881 338.423C430.12 333.841 432.436 329.626 435.636 326.13C438.835 322.635 442.824 319.962 447.266 318.336C454.537 315.584 462.822 316.733 468.667 321.872C472.093 324.864 474.951 329.363 475.245 336.056L470.408 369.117C470.408 369.117 468.352 387.278 448.548 392.63C441.565 394.515 434.007 392.788 428.998 387.553C425.318 383.708 422.522 377.633 424.084 368.154Z" fill="#F5A824"/>
<path opacity="0.2" d="M424.084 368.154L428.881 338.423C430.12 333.841 432.436 329.626 435.636 326.13C438.835 322.635 442.824 319.962 447.266 318.336C454.537 315.584 462.822 316.733 468.667 321.872C472.093 324.864 474.951 329.363 475.245 336.056L470.408 369.117C470.408 369.117 468.352 387.278 448.548 392.63C441.565 394.515 434.007 392.788 428.998 387.553C425.318 383.708 422.522 377.633 424.084 368.154Z" fill="black"/>
<path d="M461.143 405.748H418.499C414.461 405.748 411.188 409.034 411.188 413.088V416.287C411.188 420.341 414.461 423.627 418.499 423.627H461.143C465.181 423.627 468.455 420.341 468.455 416.287V413.088C468.455 409.034 465.181 405.748 461.143 405.748Z" fill="#F5A824"/>
<path d="M399.641 637.497V641.556L417.382 648.29V645.394L399.641 637.497Z" fill="#29274E"/>
<path d="M420.267 646.564V649.921L435.686 655.025C435.686 655.025 458.457 660.762 458.868 646.564H420.267Z" fill="#29274E"/>
<path d="M345.163 431.173L341.264 418.619C320.891 362.94 343.381 366.537 343.381 366.537C363.418 365.093 372.361 430.114 372.361 430.114C382.441 473.534 422.446 484.692 435.905 487.251C439.94 488.019 443.911 489.088 447.787 490.45C491.644 505.894 505.458 524.956 505.458 524.956C535.877 560.85 517.389 596.388 517.389 596.388C489.238 604.058 383.812 621.772 383.812 621.772C327.038 626.587 285.052 599.263 285.052 599.263C270.264 587.294 231.972 574.595 231.972 574.595C222.557 571.967 220.405 569.332 220.405 569.332L207.762 558.326C205.384 556.702 203.02 554.983 200.683 553.187L162.542 508.845C166.934 503.472 177.412 495.726 201.485 494.908C209.773 494.539 218.014 496.346 225.394 500.15C227.607 501.319 233.617 506.582 231.972 504.415C222.79 492.404 210.387 463.498 210.387 463.498C203.705 448.894 198.696 413.212 198.696 413.212L193.694 386.239L193.982 346.629C233.288 342.137 236.152 392.864 236.152 392.864C239.729 411.533 247.603 432.618 247.603 432.618C255.245 443.465 263.611 453.78 272.642 463.491C264.015 444.058 254.14 421.529 250.618 413.432C249.621 411.154 248.774 408.812 248.083 406.422C240.545 380.282 241.285 353.729 241.381 350.757L246.116 311.223C247.804 311.003 249.517 311.077 251.18 311.443C279.563 314.311 279.563 357.416 279.563 357.416L307.234 330.587C307.731 330.44 308.237 330.325 308.749 330.243C316.526 328.978 321.385 336.435 324.222 343.685C326.383 349.253 327.543 355.162 327.648 361.137C328.539 403.519 344.629 430.313 345.143 431.146" fill="#F9B499"/>
<path d="M353.352 542.353C353.352 542.353 433.054 512.043 472.511 588.821C472.511 588.821 451.577 503.961 353.352 542.353Z" fill="#F7A48B"/>
<path d="M200.69 553.194C182.517 539.291 166.112 521.406 161.11 515.772C160.598 515.196 160.282 514.472 160.207 513.704C160.131 512.937 160.301 512.165 160.692 511.5C161.237 510.566 161.855 509.679 162.542 508.845C162.542 508.845 210.544 533.458 200.69 553.194Z" fill="#F5A824"/>
<path d="M193.762 386.28L188.513 357.932C185.889 346.677 193.995 346.677 193.995 346.677H194.05L199.251 372.55C200.69 383.322 193.762 386.28 193.762 386.28Z" fill="#F5A824"/>
<path d="M241.381 350.757V350.482L238.75 318.15C239.75 313.259 243.115 311.649 246.095 311.23L248.768 343.561C248.768 343.561 249.179 350.248 241.381 350.757Z" fill="#F5A824"/>
<path d="M209.023 460.182C209.023 460.182 243.766 513.048 282.661 527.446L328.833 546.171L298.182 538.679C298.182 538.679 272.444 533.658 231.972 504.415C231.972 504.415 217.301 482.058 209.023 460.182Z" fill="#F7A48B"/>
<path d="M279.604 352.105V337.102L294.571 343.472L296.023 354.244C296.023 354.244 285.71 356.549 279.604 352.105Z" fill="#F4BBA8"/>
<path d="M279.604 337.102V345.99C279.604 345.99 291.644 352.724 296.051 354.244L294.571 343.472L279.604 337.102Z" fill="#F49984"/>
<path d="M331.328 446.5C331.328 446.5 311.839 459.082 274.794 458.469C274.794 458.469 267.983 456.055 266.482 447.545C266.334 446.725 266.243 445.895 266.208 445.062L252.612 396.695C250.821 392.403 249.538 387.915 248.789 383.322C248.138 379.195 247.98 374.607 249.056 370.465C249.732 367.924 251.066 365.608 252.922 363.751C254.778 361.895 257.089 360.563 259.622 359.892L278.453 354.829C278.453 354.829 277.165 349.457 282.092 352.078C282.092 352.078 289.198 354.829 293.426 354.224C293.426 354.224 296.537 353.178 296.852 355.214V356.645C296.852 356.645 315.423 355.902 323.297 358.977C323.955 359.232 324.553 359.624 325.051 360.126C326.084 361.142 326.675 362.527 326.695 363.978C326.791 370.17 327.141 387.993 328.141 404.565C328.491 410.419 328.923 416.115 329.457 421.075C329.72 423.441 330.151 425.786 330.745 428.091V428.091C330.781 428.202 330.811 428.314 330.834 428.428C331.605 431.272 332.555 434.064 333.678 436.786C334.768 439.469 335.076 443.122 331.328 446.5Z" fill="#F5A824"/>
<path opacity="0.2" d="M278.481 354.829L274.013 356.026C274.013 356.026 279.968 361.144 293.659 358.331C293.666 358.331 281.064 358.083 278.481 354.829Z" fill="black"/>
<path opacity="0.2" d="M330.889 428.47C330.238 428.992 302.355 451.012 283.778 452.842C280.667 453.133 277.535 452.594 274.698 451.281L266.475 447.545C266.327 446.725 266.236 445.895 266.201 445.062L252.605 396.695C250.814 392.403 249.531 387.915 248.782 383.322C248.782 383.322 292.851 414.966 328.827 414.278C328.827 414.278 329.251 422.994 330.752 428.16L330.889 428.47Z" fill="black"/>
<path d="M406.309 354.829C406.309 354.829 394.879 424.659 379.899 426.193C379.899 426.193 372.039 426.447 362.898 421.377L328.148 404.579C327.956 401.469 327.799 398.312 327.648 395.202C327.017 381.706 326.778 368.986 326.702 363.971C326.682 362.52 326.091 361.135 325.058 360.119L325.229 359.947C325.229 359.947 331.91 359.665 340.037 371.139C340.037 371.139 360.595 392.547 372.279 397.651C372.279 397.651 390.054 359.665 391.068 349.498C391.068 349.498 398.14 350.145 402.67 351.988C404.52 352.71 405.939 353.653 406.309 354.829Z" fill="#F5A824"/>
<path opacity="0.3" d="M406.309 354.829C406.309 354.829 394.879 424.659 379.899 426.193C379.899 426.193 372.039 426.447 362.898 421.377L328.148 404.579C327.956 401.469 327.799 398.312 327.648 395.202C327.017 381.706 326.778 368.986 326.702 363.971C326.682 362.52 326.091 361.135 325.058 360.119L325.229 359.947C325.229 359.947 331.91 359.665 340.037 371.139C340.037 371.139 360.595 392.547 372.279 397.651C372.279 397.651 390.054 359.665 391.068 349.498C391.068 349.498 398.14 350.145 402.67 351.988C404.52 352.71 405.939 353.653 406.309 354.829Z" fill="white"/>
<path opacity="0.3" d="M406.309 354.829C406.309 354.829 394.879 424.659 379.899 426.193C379.899 426.193 372.039 426.447 362.898 421.377L328.148 404.579L327.648 395.202L355.778 413.645C365.166 418.942 372.793 412.084 372.793 412.084C377.59 405.37 378.885 413.198 378.885 413.198C387.519 419.816 402.67 351.974 402.67 351.974C404.52 352.71 405.939 353.653 406.309 354.829Z" fill="white"/>
<path opacity="0.2" d="M328.148 404.579L330.855 405.886L329.484 380.633C329.484 380.633 329.615 373.176 326.819 369.358L328.148 404.579Z" fill="black"/>
<path d="M406.309 354.829C406.309 354.829 413.511 330.326 409.29 322.099C409.196 321.922 409.05 321.779 408.872 321.689C408.695 321.598 408.494 321.564 408.296 321.592C408.099 321.62 407.915 321.708 407.769 321.844C407.623 321.98 407.522 322.158 407.48 322.353C407.253 323.541 407.14 324.748 407.145 325.958C407.134 327.428 406.814 328.879 406.206 330.216C405.807 331.155 405.296 332.042 404.685 332.857C404.685 332.857 407.994 319.003 404.239 316.1C404.239 316.1 402.279 314.814 402.183 319.76C402.183 319.76 401.108 330.181 397.805 331.874C397.805 331.874 401.491 319.663 401.231 314.559C401.215 314.284 401.117 314.02 400.95 313.801C400.783 313.582 400.555 313.418 400.294 313.332C400.033 313.245 399.752 313.239 399.488 313.314C399.224 313.39 398.988 313.543 398.812 313.754C397.27 315.563 395.125 320.282 393.659 332.52C393.659 332.52 392.699 321.555 393.398 316.781C393.452 316.454 393.397 316.119 393.241 315.827C393.086 315.534 392.839 315.302 392.539 315.165C392.238 315.028 391.901 314.994 391.58 315.068C391.258 315.143 390.97 315.322 390.76 315.577C390.034 316.485 389.287 318.281 388.704 321.596C388.549 322.424 388.483 323.266 388.506 324.107C388.574 326.859 388.752 333.58 388.951 337.047C388.951 337.047 387.978 331.887 383.777 331.069C383.777 331.069 381.612 330.814 384.559 335.533C384.559 335.533 391.014 345.501 391.11 349.47C391.075 349.47 404.452 350.55 406.309 354.829Z" fill="#F4BBA8"/>
<path d="M613.901 413.576C609.104 415.055 610.118 407.619 610.118 407.619C610.371 404.661 610.461 401.937 610.426 399.454C610.31 387.725 607.624 381.355 607.624 381.355C607.103 379.456 606.294 380.082 606.253 381.197C606.233 381.803 606.115 382.403 605.904 382.971C603.204 390.8 593.953 391.096 593.953 391.096C576.821 390.931 576.013 376.223 576.013 376.223C568.441 377.386 564.816 370.438 564.816 370.438L575.355 370.273C575.355 366.469 580.453 362.671 580.453 362.671C578.952 350.943 562.506 339.53 562.506 339.53L561.78 339.159C538.433 327.086 536.987 316.726 536.987 316.726C536.524 315.133 536.167 313.51 535.918 311.869C535.545 309.533 535.492 307.156 535.761 304.805C536.172 301.038 537.746 297.495 540.263 294.672C544.278 290.18 549.932 288.199 553.331 287.366C554.739 287.058 556.187 286.979 557.62 287.132C560.156 287.332 558.388 284.174 558.388 284.174L548.356 271.441C544.409 265.332 546.389 262.684 546.389 262.684C550.014 259.245 554.126 264.012 554.126 264.012L567.029 275.183L570.914 278.554C580.624 287.497 579.137 290.936 579.137 290.936C604.931 301.606 610.858 337.267 611.639 342.77C611.709 343.274 611.831 343.77 612.002 344.249C619.15 364.481 619.958 397.136 619.958 397.136C620.465 410.79 613.901 413.576 613.901 413.576Z" fill="#E6E7E8"/>
<path opacity="0.3" d="M613.9 413.576C609.104 415.055 610.118 407.619 610.118 407.619C610.371 404.661 610.46 401.937 610.426 399.454C619.191 399.763 614.428 371.676 614.428 371.676C610.714 345.377 603.519 326.721 600.483 319.677C599.593 317.591 598.518 315.591 597.269 313.699C585.62 296.288 566.241 287.435 566.241 287.435H570.044C570.493 287.444 570.938 287.343 571.339 287.139C571.74 286.936 572.085 286.636 572.344 286.267C572.602 285.898 572.767 285.471 572.822 285.023C572.878 284.575 572.822 284.121 572.662 283.7C571.223 280.033 567.001 275.183 567.001 275.183L570.887 278.554C580.597 287.497 579.11 290.936 579.11 290.936C604.903 301.606 610.831 337.267 611.612 342.77C611.682 343.274 611.803 343.77 611.975 344.249C619.122 364.481 619.931 397.135 619.931 397.135C620.465 410.79 613.9 413.576 613.9 413.576Z" fill="#F5A824"/>
<path opacity="0.3" d="M584.044 388.757C584.044 388.757 609.864 390.972 601.751 368.223C601.751 368.223 605.588 370.974 606.26 381.197C606.26 381.197 605.89 389.534 593.925 391.096C593.959 391.096 589.416 391.742 584.044 388.757Z" fill="#F5A824"/>
<path d="M592.829 371.855C591.828 373.286 588.388 378.129 586.374 380.11C586.304 380.176 586.256 380.261 586.234 380.355C586.212 380.449 586.217 380.547 586.25 380.637C586.283 380.728 586.341 380.807 586.418 380.865C586.494 380.922 586.586 380.957 586.682 380.963C588.923 381.142 593.932 381.135 597.42 378.163C597.42 378.163 599.332 373.107 593.603 371.545C593.458 371.51 593.306 371.521 593.167 371.576C593.028 371.632 592.91 371.729 592.829 371.855V371.855Z" fill="#F5A824"/>
<path d="M598.643 345.555C603.067 345.037 605.994 338.933 605.18 331.922C604.365 324.91 600.118 319.646 595.694 320.164C591.269 320.682 588.343 326.786 589.157 333.797C589.971 340.809 594.218 346.073 598.643 345.555Z" fill="#F5A824"/>
<path d="M561.821 339.159L559.69 338.031H559.628C538.385 326.46 537.015 316.754 537.015 316.754C536.551 315.16 536.194 313.538 535.946 311.897C539.646 307.46 545.539 304.227 552.392 303.422C560.115 302.528 567.31 304.873 571.956 309.207C574.836 311.785 576.693 315.319 577.184 319.161C578.205 327.898 571.586 336.077 561.821 339.159Z" fill="#F5A824"/>
<path opacity="0.2" d="M561.821 339.159L559.69 338.031H559.628C583.763 329.473 572.347 309.826 571.963 309.207C574.841 311.786 576.695 315.32 577.184 319.161C578.205 327.898 571.586 336.077 561.821 339.159Z" fill="black"/>
<path d="M540.277 294.672C537.762 297.496 536.191 301.039 535.781 304.805C535.576 304.447 530.299 295.614 524.769 291.583C524.769 291.583 515.539 285.165 520.658 283.479C520.658 283.479 525.756 279.999 535.774 289.739L540.277 294.672Z" fill="#F5A824"/>
<path opacity="0.2" d="M540.276 294.672C535.932 299.975 535.774 304.805 535.774 304.805L534.774 303.202C537.775 290.964 524.255 282.874 524.255 282.874C524.255 282.874 529.052 283.039 533.917 288.027L535.781 289.739L540.276 294.672Z" fill="black"/>
<path d="M543.182 292.016C543.182 292.016 535.939 279.001 514.401 271.07C514.401 271.07 505.801 267.63 491.925 267.678C490.265 267.697 488.61 267.508 486.998 267.114C483.571 266.241 478.912 264.115 480.111 259.093C480.111 259.093 482.331 245.927 509.796 253.521C509.796 253.521 539.187 260.331 551.165 287.972C551.193 287.972 546.094 289.361 543.182 292.016Z" fill="#F5A824"/>
<path opacity="0.2" d="M543.182 292.016C545.514 290.078 548.252 288.695 551.193 287.972C551.193 287.972 545.711 272.741 529.696 262.684C529.696 262.684 547.232 281.533 541.626 289.739L543.182 292.016Z" fill="black"/>
<path opacity="0.45" d="M541.517 542.339C558.131 542.339 571.6 528.818 571.6 512.14C571.6 495.461 558.131 481.941 541.517 481.941C524.903 481.941 511.434 495.461 511.434 512.14C511.434 528.818 524.903 542.339 541.517 542.339Z" fill="white"/>
<path d="M541.517 542.731C535.484 542.731 529.587 540.935 524.571 537.571C519.556 534.206 515.646 529.424 513.338 523.83C511.029 518.235 510.425 512.078 511.602 506.139C512.779 500.199 515.684 494.744 519.949 490.462C524.215 486.179 529.65 483.263 535.566 482.082C541.483 480.9 547.616 481.507 553.189 483.824C558.762 486.142 563.526 490.066 566.877 495.101C570.229 500.137 572.018 506.056 572.018 512.112C572.009 520.23 568.792 528.013 563.074 533.753C557.356 539.493 549.603 542.722 541.517 542.731V542.731ZM541.517 482.333C535.65 482.333 529.914 484.079 525.036 487.352C520.158 490.624 516.355 495.275 514.11 500.716C511.865 506.158 511.277 512.145 512.422 517.922C513.567 523.699 516.392 529.005 520.541 533.17C524.689 537.334 529.975 540.171 535.73 541.32C541.484 542.469 547.448 541.879 552.869 539.625C558.29 537.371 562.923 533.554 566.182 528.657C569.442 523.76 571.182 518.002 571.182 512.112C571.165 504.222 568.034 496.66 562.473 491.083C556.913 485.506 549.377 482.369 541.517 482.36V482.333Z" fill="#F5A824"/>
<path d="M527.085 527.363C526.766 527.366 526.458 527.242 526.229 527.019C526.109 526.907 526.012 526.771 525.944 526.621C525.876 526.471 525.839 526.308 525.834 526.143C525.829 525.978 525.856 525.814 525.914 525.66C525.973 525.505 526.061 525.364 526.174 525.244L537.405 513.275C537.516 513.147 537.652 513.043 537.804 512.97C537.956 512.896 538.121 512.854 538.289 512.845C538.458 512.837 538.626 512.863 538.785 512.922C538.943 512.981 539.088 513.071 539.21 513.187C539.333 513.304 539.431 513.443 539.499 513.599C539.566 513.754 539.602 513.921 539.604 514.091C539.605 514.26 539.573 514.428 539.508 514.585C539.444 514.741 539.348 514.883 539.228 515.001L527.997 526.971C527.879 527.096 527.738 527.195 527.581 527.262C527.425 527.329 527.256 527.364 527.085 527.363V527.363Z" fill="#F5A824"/>
<path d="M544.504 496.916C542.586 496.915 540.711 497.485 539.116 498.554C537.52 499.622 536.276 501.142 535.541 502.92C534.806 504.699 534.613 506.656 534.987 508.545C535.36 510.434 536.283 512.169 537.639 513.531C538.995 514.893 540.722 515.82 542.603 516.197C544.485 516.573 546.435 516.38 548.207 515.644C549.979 514.907 551.494 513.66 552.559 512.059C553.625 510.458 554.194 508.576 554.194 506.65C554.194 504.07 553.173 501.595 551.356 499.77C549.54 497.945 547.075 496.918 544.504 496.916ZM544.504 514.114C543.029 514.114 541.586 513.675 540.359 512.852C539.131 512.028 538.175 510.858 537.61 509.49C537.045 508.121 536.898 506.614 537.185 505.161C537.473 503.708 538.184 502.373 539.228 501.326C540.271 500.278 541.601 499.564 543.049 499.275C544.496 498.986 545.997 499.135 547.36 499.702C548.724 500.269 549.889 501.229 550.709 502.461C551.529 503.693 551.967 505.141 551.967 506.623C551.971 507.609 551.78 508.585 551.407 509.497C551.033 510.409 550.484 511.237 549.791 511.935C549.097 512.633 548.273 513.187 547.366 513.564C546.459 513.942 545.486 514.136 544.504 514.135V514.114Z" fill="#F5A824"/>
<path d="M275.98 462.872C275.98 462.872 269.682 489.432 277.179 508.845C277.179 508.845 280.756 528.877 312.243 529.358L379.035 530.555C379.035 530.555 377.843 555.389 392.631 588.821L401.937 612.21C401.937 612.21 421.974 616.041 428.662 607.394L416.971 543.219L411.962 515.442C411.962 515.442 411.962 498.712 396.934 494.385L369.264 489.845L406.315 467.832C406.315 467.832 407.193 494.096 416.731 508.865L432.492 540.929C432.492 540.929 445.368 541.83 453.242 531.408C453.242 531.408 443.58 503.397 437.858 465.679L435.535 451.129C435.535 451.129 434.994 426.165 409.591 430.299L335.446 449.637L295.79 459.082L275.98 462.872Z" fill="#29274E"/>
<path opacity="0.2" d="M383.812 481.191L349.761 483.014C335.528 482.058 341.6 473.872 341.6 473.872C329.457 483.963 345.156 486.825 345.156 486.825L369.264 489.845L383.812 481.191Z" fill="black"/>
<path d="M401.937 612.21V615.422C401.937 615.422 421.809 621.152 428.141 614.101L425.509 610.146C425.509 610.146 419.239 614.92 401.937 612.21Z" fill="#F4BBA8"/>
<path d="M400.909 638.694C400.909 638.694 397.859 637.676 398.853 630.322L401.916 615.422C401.916 615.422 420.377 620.925 428.12 614.101C428.12 614.101 438.31 626.037 450.309 631.987C450.309 631.987 464.323 635.922 457.963 648.655C457.345 649.914 456.308 650.917 455.031 651.489C451.323 653.126 442.168 655.3 425.496 648.738L400.909 638.694Z" fill="#F5A824"/>
<path d="M452.426 532.412L454.982 534.476C454.982 534.476 450.11 543.419 435.795 545.723L434.164 540.97C437.633 540.893 441.048 540.093 444.192 538.619C447.336 537.146 450.14 535.032 452.426 532.412V532.412Z" fill="#F4BBA8"/>
<path d="M493.624 548.922C493.138 563.43 463.425 564.242 463.425 564.242C462.74 564.187 462.102 564.139 461.486 564.118C460.677 564.077 459.916 564.063 459.211 564.077C452.913 564.125 450.432 565.707 450.432 565.707C444.197 567.73 440.476 566.003 438.255 563.361C435.281 559.819 435.014 554.639 435.014 554.639C433.383 545.338 435.823 545.696 435.823 545.696C450.761 543.089 455.01 534.449 455.01 534.449C459.718 538.851 481.152 539.952 481.152 539.952C492.165 539.952 493.761 544.726 493.809 547.313C493.826 547.855 493.764 548.398 493.624 548.922V548.922Z" fill="#F5A824"/>
<path d="M460.019 567.833L446.999 569.78C439.777 570.254 438.523 564.036 438.228 563.361C440.448 566.003 444.169 567.73 450.405 565.707C450.405 565.707 452.886 564.125 459.183 564.077L460.019 567.833Z" fill="#29274E"/>
<path d="M462.082 567.578L461.486 564.139C462.102 564.139 462.746 564.207 463.425 564.263C463.425 564.263 493.138 563.451 493.624 548.943C493.755 548.417 493.808 547.875 493.782 547.333V547.333C502.156 566.711 462.082 567.578 462.082 567.578Z" fill="#29274E"/>
<path d="M298.237 354.217C306.551 354.217 313.292 343.003 313.292 329.17C313.292 315.337 306.551 304.124 298.237 304.124C289.922 304.124 283.182 315.337 283.182 329.17C283.182 343.003 289.922 354.217 298.237 354.217Z" fill="#F4BBA8"/>
<path d="M285.395 342.247C285.395 342.247 277.357 343.926 275.383 326.831C275.383 326.831 267.105 304.894 280.386 305.1C280.386 305.1 285.758 292.718 299.895 298.634C299.895 298.634 308.659 290.379 317.246 298.992C317.246 298.992 322.728 316.932 312.648 321.968C312.295 321.542 311.824 321.23 311.295 321.072C310.765 320.914 310.201 320.917 309.674 321.08C309.674 321.08 304.781 323.144 300.135 320.186C300.135 320.186 285.402 315.873 286.478 328.806L284.326 338.794C284.326 338.794 285.032 341.305 285.395 342.247Z" fill="#29274E"/>
<path d="M284.127 338.794C286.629 338.794 288.657 336.379 288.657 333.401C288.657 330.422 286.629 328.008 284.127 328.008C281.626 328.008 279.598 330.422 279.598 333.401C279.598 336.379 281.626 338.794 284.127 338.794Z" fill="#F4BBA8"/>
<path d="M333.205 444.305L335.09 447.442C335.403 447.958 335.503 448.577 335.367 449.166C335.231 449.755 334.871 450.267 334.363 450.593C328.696 454.204 310.051 464.2 278.056 463.567C277.466 463.562 276.886 463.412 276.367 463.13C275.848 462.848 275.406 462.442 275.08 461.948C274.753 461.454 274.553 460.887 274.496 460.298C274.439 459.708 274.527 459.113 274.753 458.566L274.794 458.469C274.794 458.469 310.331 458.001 331.328 446.5C332.117 445.927 332.761 445.175 333.205 444.305V444.305Z" fill="#F5A824"/>
<path opacity="0.2" d="M333.205 444.305L335.09 447.442C335.403 447.958 335.503 448.577 335.367 449.166C335.231 449.755 334.871 450.267 334.363 450.593C328.696 454.204 310.051 464.2 278.056 463.567C277.466 463.562 276.886 463.412 276.367 463.13C275.848 462.848 275.406 462.442 275.08 461.948C274.753 461.454 274.553 460.887 274.496 460.298C274.439 459.708 274.527 459.113 274.753 458.566L274.794 458.469C274.794 458.469 310.331 458.001 331.328 446.5C332.117 445.927 332.761 445.175 333.205 444.305V444.305Z" fill="black"/>
<path d="M421.898 366.758L426.736 337.047C427.975 332.466 430.292 328.25 433.491 324.755C436.69 321.259 440.679 318.586 445.122 316.96C452.392 314.208 460.677 315.357 466.522 320.489C469.949 323.488 472.806 327.987 473.108 334.68L468.263 367.741C468.263 367.741 466.207 385.902 446.403 391.254C439.42 393.139 431.862 391.412 426.853 386.177C423.145 382.304 420.356 376.216 421.898 366.758Z" fill="#F5A824"/>
<path d="M442.744 386.817C433.15 385.558 426.661 375.177 428.196 363.634C428.244 363.263 428.299 362.891 428.367 362.527L431.547 343.953H431.512C431.337 343.926 431.165 343.882 430.998 343.823L427.812 362.437C425.708 374.256 431.924 385.393 441.695 387.312C442.004 387.374 442.312 387.422 442.627 387.464C447.76 388.151 453.023 386.349 457.244 382.456C457.133 382.274 457.043 382.08 456.977 381.878C452.865 385.709 447.746 387.484 442.744 386.817Z" fill="white"/>
<path d="M454.112 320.468C444.642 319.161 435.391 326.529 432.307 337.315C432.425 337.321 432.542 337.337 432.657 337.363H432.862C435.898 326.941 444.875 319.835 454.009 321.115C463.603 322.367 470.092 332.747 468.558 344.29C468.51 344.662 468.455 345.033 468.386 345.405L464.59 367.569C464.011 370.991 462.763 374.265 460.917 377.2C461.087 377.287 461.242 377.401 461.376 377.537C463.268 374.534 464.547 371.183 465.138 367.679L468.934 345.515C471.045 333.704 464.823 322.559 455.072 320.633C454.743 320.537 454.427 320.537 454.112 320.468Z" fill="white"/>
<path d="M453.331 325.002C456.371 325.443 459.175 326.896 461.294 329.129C461.403 328.938 461.526 328.757 461.664 328.586C459.473 326.285 456.578 324.789 453.441 324.334C449.86 323.892 446.239 324.74 443.223 326.728C443.294 326.932 443.346 327.141 443.381 327.354C446.312 325.404 449.841 324.569 453.331 325.002V325.002Z" fill="white"/>
<path d="M430.409 364.99C430.431 363.836 430.541 362.686 430.738 361.55L434.096 341.958C434.754 338.012 436.439 334.309 438.982 331.227C438.836 331.107 438.705 330.971 438.591 330.821C435.973 333.992 434.236 337.801 433.555 341.862L430.197 361.454C429.993 362.652 429.88 363.864 429.861 365.079C430.039 365.025 430.223 364.995 430.409 364.99V364.99Z" fill="white"/>
<path d="M465.021 333.559C464.87 333.702 464.702 333.827 464.521 333.931C466.249 337.85 466.76 342.201 465.988 346.416L462.637 366.008C460.732 376.657 452.289 384.093 443.395 382.951C439.895 382.438 436.721 380.606 434.521 377.826C434.348 377.95 434.159 378.049 433.959 378.122C436.235 381.103 439.577 383.076 443.278 383.625C452.481 384.808 461.218 377.117 463.151 366.097L466.508 346.506C467.321 342.138 466.803 337.626 465.021 333.559Z" fill="white"/>
<path d="M434.911 350.028L436.021 343.561C437.666 334.343 444.971 327.918 452.659 328.902C459.101 329.741 463.857 336.07 463.911 343.878C464.096 343.857 464.282 343.857 464.466 343.878V343.878C464.466 335.733 459.485 329.101 452.762 328.228C444.765 327.196 437.166 333.882 435.459 343.465L434.363 350C434.493 349.993 434.624 349.993 434.754 350L434.911 350.028Z" fill="white"/>
<path d="M450.021 378.321C448.131 379.045 446.091 379.281 444.087 379.009C436.789 378.074 431.807 370.183 432.958 361.378C432.992 361.082 433.04 360.786 433.095 360.498L433.781 356.597H433.602C433.477 356.577 433.353 356.547 433.232 356.508L432.547 360.429C430.93 369.516 435.706 378.08 443.21 379.559C443.456 379.608 443.696 379.649 443.936 379.676C446.06 379.963 448.222 379.705 450.22 378.927C450.131 378.733 450.065 378.53 450.021 378.321Z" fill="white"/>
<path d="M463.329 350.523L463.096 350.488L460.718 364.405C460.044 368.505 458.071 372.278 455.092 375.164C455.18 375.363 455.246 375.57 455.291 375.783C458.465 372.776 460.565 368.804 461.266 364.481L463.644 350.557L463.329 350.523Z" fill="white"/>
<path d="M456.853 334.082C455.461 333.042 453.83 332.371 452.111 332.128C445.314 331.255 438.852 336.944 437.399 345.082L434.939 359.452C434.796 360.3 434.712 361.158 434.685 362.018C434.865 361.864 435.063 361.732 435.274 361.626C435.302 360.934 435.373 360.245 435.487 359.562L437.954 345.192C439.324 337.418 445.492 331.991 451.995 332.809C453.621 333.044 455.162 333.685 456.476 334.674C456.587 334.467 456.713 334.269 456.853 334.082V334.082Z" fill="white"/>
<path d="M460.54 338.65C460.41 338.824 460.263 338.986 460.101 339.131C461.422 342.033 461.821 345.273 461.246 348.411L458.779 362.781C457.408 370.348 451.584 375.687 445.252 375.198C445.163 375.426 445.053 375.645 444.923 375.852C451.638 376.54 457.943 370.871 459.313 362.864L461.773 348.487C462.394 345.159 461.963 341.719 460.54 338.65V338.65Z" fill="white"/>
<path d="M449.103 336.675C449.145 336.442 449.204 336.212 449.281 335.987C447.783 336.174 446.347 336.706 445.087 337.542C445.245 337.673 445.384 337.826 445.499 337.996C446.595 337.309 447.823 336.859 449.103 336.675V336.675Z" fill="white"/>
<path d="M456.01 364.102C454.044 368.918 449.747 371.841 445.403 371.291C440.38 370.637 436.967 365.189 437.769 359.135C437.769 358.936 437.824 358.737 437.865 358.537L439.879 346.753C440.117 345.375 440.563 344.041 441.202 342.798C441.063 342.616 440.948 342.417 440.859 342.206C440.118 343.6 439.606 345.105 439.345 346.664L437.323 358.441C436.2 364.804 439.544 370.823 444.8 371.834C444.971 371.869 445.135 371.896 445.307 371.917C449.912 372.495 454.455 369.42 456.545 364.302C456.361 364.253 456.182 364.186 456.01 364.102V364.102Z" fill="white"/>
<path d="M458.888 349.429L458.47 351.878C458.618 351.861 458.768 351.861 458.916 351.878H459.032L459.443 349.47C460.341 344.332 458.313 339.282 454.475 337.088C454.46 337.32 454.426 337.55 454.373 337.776C457.895 339.936 459.718 344.614 458.888 349.429Z" fill="white"/>
<path d="M450.809 339.895C446.41 339.331 442.23 343.011 441.291 348.28L440.846 350.894C441.029 350.936 441.208 350.996 441.38 351.073L441.846 348.356C442.723 343.444 446.643 340.025 450.713 340.562C454.599 341.078 457.23 345.295 456.607 349.973C456.607 350.117 456.565 350.261 456.538 350.406L454.921 359.59C454.16 363.841 451.104 367.067 447.513 367.411C447.505 367.643 447.475 367.873 447.424 368.099C451.316 367.769 454.654 364.288 455.476 359.679L457.052 350.502C457.943 345.501 455.311 340.789 451.179 339.977C451.049 339.936 450.912 339.908 450.809 339.895Z" fill="white"/>
<path d="M444.546 346.994C444.661 346.999 444.776 347.015 444.889 347.042C445.41 346.168 446.166 345.46 447.07 344.997C447.974 344.535 448.99 344.338 450.001 344.428C450.583 344.506 451.144 344.705 451.645 345.013C451.735 344.811 451.843 344.617 451.967 344.435C451.406 344.077 450.775 343.843 450.117 343.747C447.883 343.465 445.642 344.689 444.286 346.939C444.374 346.95 444.461 346.969 444.546 346.994V346.994Z" fill="white"/>
<path d="M452.995 357.994C452.86 358.743 452.615 359.469 452.269 360.147C452.435 360.248 452.583 360.375 452.707 360.525C453.112 359.755 453.394 358.927 453.543 358.069L454.674 351.479C454.774 350.865 454.807 350.243 454.77 349.622C454.594 349.705 454.407 349.763 454.215 349.794C454.241 350.334 454.209 350.876 454.119 351.41L452.995 357.994Z" fill="white"/>
<path d="M447.952 363.49C447.545 363.548 447.132 363.548 446.725 363.49C443.984 363.112 442.134 360.126 442.614 356.824L442.655 356.535L443.169 353.557C442.985 353.512 442.808 353.445 442.641 353.357L442.106 356.46C441.462 360.092 443.381 363.517 446.389 364.102L446.663 364.143C447.118 364.206 447.579 364.206 448.034 364.143C447.993 363.928 447.965 363.709 447.952 363.49V363.49Z" fill="white"/>
<path d="M449.439 347.668C447.431 347.414 445.533 349.099 445.115 351.5L444.43 355.496C444.361 355.866 444.341 356.243 444.368 356.618C444.532 356.44 444.719 356.285 444.923 356.157C444.928 355.963 444.946 355.77 444.978 355.579L445.663 351.582C446.026 349.56 447.63 348.143 449.322 348.37C451.015 348.597 452.009 350.33 451.748 352.263C451.745 352.318 451.745 352.373 451.748 352.428L451.063 356.418C450.966 357.088 450.7 357.722 450.29 358.259C449.88 358.797 449.339 359.219 448.719 359.486C448.673 359.734 448.609 359.977 448.527 360.216C449.338 359.948 450.056 359.457 450.602 358.799C451.147 358.141 451.497 357.342 451.611 356.494L452.296 352.504C452.714 350.234 451.529 348.088 449.658 347.689L449.439 347.668Z" fill="white"/>
<path d="M445.005 351.211L439.393 366.929C439.33 367.105 439.31 367.292 439.335 367.477C439.36 367.661 439.429 367.837 439.536 367.989C439.643 368.141 439.785 368.264 439.949 368.349C440.114 368.434 440.297 368.478 440.482 368.477H450.713C450.867 368.477 451.02 368.446 451.162 368.386C451.304 368.326 451.432 368.238 451.54 368.127C451.647 368.016 451.731 367.884 451.787 367.74C451.843 367.596 451.869 367.442 451.865 367.287L451.364 351.204C451.364 351.204 456.298 347.696 454.969 342.523C454.674 341.464 454.056 340.525 453.201 339.838C452.347 339.151 451.299 338.749 450.206 338.691C449.195 338.641 448.185 338.804 447.241 339.171C446.297 339.537 445.439 340.097 444.724 340.817C443.993 341.515 443.421 342.364 443.05 343.306C442.678 344.248 442.515 345.26 442.572 346.272C442.604 347.221 442.837 348.153 443.257 349.005C443.676 349.857 444.272 350.609 445.005 351.211V351.211Z" fill="#29274E"/>
<path d="M459.587 403.788H417.931C413.892 403.788 410.619 407.074 410.619 411.128V414.326C410.619 418.38 413.892 421.666 417.931 421.666H459.587C463.626 421.666 466.899 418.38 466.899 414.326V411.128C466.899 407.074 463.626 403.788 459.587 403.788Z" fill="#E6E7E8"/>
<path d="M561.232 436.704V455.814C561.212 456.99 561.591 458.137 562.308 459.068C563.205 460.189 564.836 461.262 567.755 461.07H595.118C595.398 461.072 595.678 461.033 595.947 460.953C597.173 460.581 600.415 459.26 600.415 455.78V436.862C600.436 436.218 600.322 435.576 600.078 434.98C599.835 434.383 599.469 433.845 599.003 433.401C598.538 432.957 597.984 432.618 597.378 432.404C596.772 432.191 596.128 432.109 595.488 432.164H565.59C564.416 432.196 563.301 432.69 562.486 433.539C561.671 434.388 561.22 435.525 561.232 436.704V436.704Z" fill="#F5A824"/>
<path d="M563 433.099C563 433.099 564.11 429.061 572.25 428.869H590.307C590.307 428.869 595.707 428.649 598.064 432.769C597.244 432.431 596.373 432.233 595.488 432.184H565.59C565.118 432.142 564.643 432.202 564.196 432.359C563.749 432.517 563.341 432.77 563 433.099V433.099Z" fill="#F5A824"/>
<path opacity="0.2" d="M563 433.099C563 433.099 564.11 429.061 572.25 428.869H590.307C590.307 428.869 595.707 428.649 598.064 432.769C597.244 432.431 596.373 432.233 595.488 432.184H565.59C565.118 432.142 564.643 432.202 564.196 432.359C563.749 432.517 563.341 432.77 563 433.099V433.099Z" fill="black"/>
<path d="M583.927 445.255C584.839 444.654 585.529 443.77 585.893 442.738C586.258 441.707 586.275 440.584 585.944 439.541C585.613 438.498 584.952 437.592 584.06 436.962C583.169 436.332 582.096 436.012 581.006 436.052C579.917 436.091 578.87 436.486 578.025 437.179C577.181 437.871 576.585 438.822 576.329 439.885C576.073 440.949 576.171 442.068 576.607 443.071C577.044 444.074 577.795 444.906 578.747 445.44L577.02 456.894C576.999 457.05 577.012 457.21 577.059 457.36C577.106 457.511 577.185 457.65 577.29 457.766C577.396 457.883 577.526 457.975 577.671 458.036C577.816 458.097 577.973 458.125 578.13 458.118L584.983 457.788C585.135 457.781 585.284 457.741 585.42 457.671C585.555 457.601 585.674 457.503 585.769 457.383C585.864 457.264 585.932 457.125 585.969 456.976C586.006 456.828 586.011 456.673 585.983 456.523L583.927 445.255Z" fill="white"/>
<path d="M392.693 314.084C387.458 312.352 381.896 311.853 376.438 312.626C376.344 312.642 376.26 312.695 376.203 312.772C376.146 312.849 376.122 312.945 376.134 313.04C376.147 313.135 376.195 313.222 376.27 313.282C376.344 313.342 376.439 313.371 376.534 313.362C381.864 312.601 387.297 313.083 392.412 314.772C392.843 314.917 393.097 314.229 392.693 314.084V314.084Z" fill="#F5A824"/>
<path d="M396.763 318.521C392.922 316.483 388.716 315.228 384.389 314.83C380.062 314.432 375.699 314.899 371.552 316.203C371.114 316.341 371.388 317.022 371.82 316.891C375.88 315.621 380.152 315.173 384.386 315.572C388.621 315.971 392.735 317.21 396.489 319.216C396.893 319.43 397.174 318.742 396.77 318.528L396.763 318.521Z" fill="#F5A824"/>
<path d="M399.49 322.511C392.254 318.618 383.729 316.107 375.506 317.613C372.864 318.093 370.317 319.004 367.968 320.31C367.564 320.53 367.831 321.218 368.236 320.998C376.198 316.575 385.477 317.469 393.59 320.626C395.497 321.374 397.357 322.235 399.161 323.206C399.566 323.426 399.847 322.738 399.435 322.518L399.49 322.511Z" fill="#F5A824"/>
<path d="M401.471 326.825C393.823 320.902 383.812 318.274 374.403 320.633C371.292 321.416 368.316 322.666 365.577 324.341C365.186 324.575 365.454 325.263 365.851 325.029C370.395 322.225 375.595 320.673 380.927 320.53C385.696 320.476 390.415 321.518 394.721 323.578C396.965 324.63 399.086 325.929 401.046 327.451C401.409 327.733 401.848 327.148 401.484 326.866L401.471 326.825Z" fill="#F5A824"/>
<path d="M402.718 331.296C399.023 327.252 394.23 324.381 388.93 323.036C383.63 321.692 378.054 321.932 372.889 323.729C369.477 324.927 366.277 326.659 363.405 328.861C363.34 328.922 363.3 329.004 363.291 329.093C363.283 329.181 363.307 329.27 363.359 329.342C363.412 329.414 363.488 329.464 363.575 329.483C363.662 329.502 363.752 329.489 363.83 329.445C368.565 325.754 374.257 323.505 380.228 322.965C384.308 322.658 388.404 323.289 392.204 324.812C396.004 326.334 399.408 328.707 402.156 331.75C402.464 332.094 403.033 331.64 402.718 331.296V331.296Z" fill="#F5A824"/>
<path d="M385.888 324.733C381.7 324.011 377.398 324.354 373.375 325.731C368.944 327.318 364.962 329.962 361.774 333.435C361.452 333.772 362.014 334.219 362.329 333.882C368.496 327.34 377.11 323.983 385.778 325.469C386.231 325.545 386.327 324.781 385.874 324.733H385.888Z" fill="#F5A824"/>
<path d="M403.458 336.441C400.896 332.616 397.44 329.48 393.391 327.306C392.987 327.086 392.706 327.774 393.111 327.994C397.048 330.115 400.406 333.174 402.889 336.902C403.156 337.294 403.718 336.834 403.458 336.448V336.441Z" fill="#F5A824"/>
<path d="M403.568 342.02C400.737 335.554 395.625 330.326 389.122 328.056C386.015 326.996 382.714 326.628 379.451 326.977C376.187 327.326 373.038 328.385 370.223 330.078C366.53 332.347 363.392 335.42 361.04 339.069C360.78 339.461 361.335 339.915 361.596 339.523C365.591 333.483 371.518 328.923 378.521 327.829C381.621 327.364 384.784 327.572 387.798 328.438C390.811 329.304 393.604 330.809 395.989 332.851C398.978 335.436 401.338 338.674 402.889 342.316C402.928 342.407 403.002 342.479 403.094 342.516C403.186 342.553 403.288 342.551 403.379 342.512C403.47 342.473 403.542 342.399 403.578 342.307C403.615 342.215 403.614 342.112 403.574 342.02H403.568Z" fill="#F5A824"/>
<path d="M402.971 348.996C402.019 341.071 397.325 334.151 390.253 331.055C386.848 329.601 383.12 329.081 379.449 329.548C375.778 330.014 372.296 331.451 369.359 333.71C365.131 336.895 362.082 341.477 360.04 346.437C360.018 346.48 360.006 346.527 360.003 346.576C360 346.624 360.007 346.673 360.023 346.718C360.039 346.764 360.064 346.806 360.097 346.841C360.13 346.877 360.17 346.905 360.214 346.925C360.258 346.944 360.306 346.955 360.354 346.955C360.403 346.956 360.451 346.946 360.495 346.928C360.54 346.909 360.58 346.882 360.614 346.847C360.647 346.812 360.674 346.771 360.691 346.726C363.98 338.739 370.161 331.901 378.597 330.395C382.044 329.798 385.587 330.119 388.872 331.326C392.157 332.533 395.069 334.584 397.318 337.274C400.079 340.659 401.8 344.777 402.272 349.126C402.269 349.18 402.277 349.234 402.297 349.284C402.317 349.334 402.348 349.379 402.387 349.416C402.427 349.452 402.474 349.479 402.525 349.494C402.577 349.51 402.631 349.514 402.684 349.505C402.737 349.496 402.788 349.476 402.832 349.445C402.876 349.414 402.912 349.374 402.938 349.327C402.965 349.28 402.98 349.228 402.983 349.174C402.987 349.12 402.978 349.066 402.958 349.016L402.971 348.996Z" fill="#F5A824"/>
<path d="M361.726 351.672C362.706 346.244 364.933 340.892 369.024 337.226C372.253 334.338 376.411 332.716 380.735 332.658C384.906 332.61 388.982 333.907 392.364 336.359C395.902 338.929 398.417 342.675 399.463 346.932C400.6 351.644 399.62 356.377 398.271 360.979C398.044 361.707 397.928 362.466 397.928 363.229C397.928 363.703 398.613 363.593 398.613 363.125C398.674 362.074 398.889 361.038 399.25 360.05C399.531 359.025 399.792 357.987 400.011 356.948C400.356 355.394 400.585 353.817 400.696 352.229C400.768 350.813 400.673 349.393 400.415 347.998C399.627 343.515 397.281 339.457 393.796 336.545C390.477 333.789 386.365 332.176 382.064 331.943C377.654 331.69 373.298 333.011 369.764 335.671C365.515 338.911 362.911 343.878 361.541 349.113C361.342 349.924 361.171 350.743 361.02 351.562C361.006 351.61 361.003 351.661 361.01 351.71C361.017 351.76 361.035 351.808 361.062 351.85C361.09 351.892 361.126 351.928 361.168 351.955C361.21 351.982 361.258 351.999 361.307 352.006C361.357 352.013 361.407 352.01 361.455 351.995C361.503 351.981 361.548 351.956 361.585 351.923C361.623 351.89 361.653 351.849 361.674 351.804C361.695 351.758 361.705 351.708 361.705 351.658L361.726 351.672Z" fill="#F5A824"/>
<path d="M396.119 366.345C395.931 365.154 395.917 363.942 396.078 362.747C396.229 362.011 396.427 361.282 396.592 360.546C396.921 359.17 397.238 357.776 397.544 356.363C397.799 355.347 398 354.319 398.147 353.281C398.161 353.233 398.165 353.182 398.157 353.133C398.15 353.083 398.132 353.035 398.105 352.993C398.077 352.951 398.041 352.915 397.999 352.888C397.957 352.861 397.91 352.844 397.86 352.837C397.81 352.83 397.76 352.834 397.712 352.848C397.664 352.862 397.619 352.887 397.582 352.92C397.544 352.953 397.514 352.994 397.493 353.039C397.472 353.085 397.462 353.135 397.462 353.185C397.316 354.223 397.115 355.251 396.859 356.267C396.544 357.702 396.217 359.138 395.879 360.573C395.715 361.296 395.509 362.018 395.372 362.747C395.226 363.978 395.244 365.222 395.427 366.448C395.475 366.923 396.174 366.819 396.112 366.345H396.119Z" fill="#F5A824"/>
<path d="M364.158 353.66C365.303 345.935 369.092 338.079 376.616 335.458C379.442 334.507 382.478 334.383 385.371 335.101C388.264 335.818 390.894 337.347 392.953 339.51C395.442 342.2 396.965 345.647 397.284 349.305C397.325 349.78 398.031 349.677 397.969 349.202C397.694 345.934 396.473 342.818 394.455 340.239C392.437 337.66 389.712 335.73 386.614 334.687C383.525 333.71 380.216 333.673 377.105 334.583C373.995 335.493 371.223 337.308 369.14 339.798C365.865 343.603 364.193 348.597 363.46 353.557C363.446 353.605 363.442 353.656 363.45 353.705C363.457 353.755 363.475 353.803 363.502 353.845C363.529 353.887 363.565 353.923 363.608 353.95C363.65 353.977 363.697 353.994 363.747 354.001C363.796 354.008 363.847 354.004 363.895 353.99C363.943 353.976 363.987 353.951 364.025 353.918C364.063 353.885 364.093 353.844 364.114 353.799C364.134 353.753 364.145 353.703 364.145 353.653L364.158 353.66Z" fill="#F5A824"/>
<path d="M364.899 364.983C364.994 364.991 365.089 364.963 365.163 364.903C365.238 364.843 365.286 364.756 365.299 364.661C365.311 364.566 365.286 364.47 365.23 364.392C365.173 364.315 365.089 364.263 364.994 364.247C364.899 364.238 364.805 364.267 364.73 364.327C364.655 364.387 364.607 364.473 364.594 364.568C364.582 364.664 364.607 364.76 364.663 364.837C364.72 364.914 364.804 364.966 364.899 364.983Z" fill="#F5A824"/>
<path d="M394.077 368.071C393.152 361.66 396.242 355.49 395.838 349.078C395.721 346.303 394.697 343.644 392.926 341.511C391.197 339.537 388.962 338.076 386.464 337.288C382.612 336.015 378.241 335.987 374.602 338.072C371.244 340.005 369.044 343.238 367.489 346.815C365.162 352.453 364.172 358.557 364.597 364.646C364.597 365.12 365.323 365.01 365.282 364.536C364.924 359.144 365.68 353.736 367.503 348.652C368.77 345.254 370.579 341.876 373.457 339.709C376.637 337.294 380.426 336.723 384.237 337.48C389.575 338.54 394.289 342.296 395.029 348.205C395.872 354.939 392.384 361.426 393.364 368.154C393.394 368.228 393.448 368.291 393.518 368.33C393.587 368.37 393.668 368.385 393.747 368.373C393.826 368.362 393.899 368.323 393.954 368.265C394.009 368.206 394.042 368.131 394.049 368.051L394.077 368.071Z" fill="#F5A824"/>
<path d="M368.852 349.649C367.317 355.641 367.023 361.908 366.797 368.065C366.797 368.539 367.482 368.635 367.482 368.161C367.694 362.004 367.989 355.73 369.538 349.746C369.654 349.285 368.948 349.195 368.852 349.649Z" fill="#F5A824"/>
<path d="M392.247 369.867C390.095 367.033 390.671 363.167 391.651 359.927C392.693 356.487 394.084 353.048 393.529 349.36C392.61 343.293 387.608 338.65 381.708 338.67C380.131 338.664 378.568 338.98 377.117 339.6C375.665 340.22 374.355 341.13 373.265 342.275C372.943 342.619 373.505 343.066 373.821 342.729C377.966 338.299 385.182 338.402 389.348 342.55C391.412 344.631 392.676 347.377 392.919 350.303C393.234 354.066 391.493 357.546 390.589 361.103C389.808 364.192 389.712 367.721 391.685 370.321C391.966 370.692 392.528 370.238 392.247 369.867V369.867Z" fill="#F5A824"/>
<path d="M389.931 370.596C387.985 367.968 388.163 364.494 388.917 361.406C389.348 359.61 389.945 357.856 390.438 356.081C390.972 354.504 391.335 352.873 391.521 351.218C391.85 345.824 387.306 341.587 382.503 340.954C378.24 340.376 374.485 343.334 372.299 346.953C371.707 348.008 371.269 349.143 370.997 350.323C370.349 353.029 369.99 355.796 369.928 358.578C369.75 362.561 369.579 366.551 369.312 370.527C369.312 371.002 369.997 371.098 369.997 370.624C370.182 367.782 370.312 364.948 370.449 362.107C370.668 357.491 370.545 352.394 372.505 348.095C373.978 344.806 377.213 341.979 380.728 341.621C385.73 341.105 391.171 345.646 390.849 351.101C390.623 353.018 390.189 354.905 389.554 356.728C389.04 358.516 388.437 360.284 388.053 362.114C387.423 365.155 387.526 368.498 389.424 371.057C389.705 371.428 390.267 370.974 389.986 370.603L389.931 370.596Z" fill="#F5A824"/>
<path d="M388.177 372.55C385.395 367.996 386.121 362.568 387.704 357.656C388.547 355.029 389.993 352.277 389.506 349.402C389.299 348.395 388.88 347.445 388.277 346.615C387.674 345.785 386.902 345.093 386.011 344.586C384.208 343.544 382.086 343.204 380.049 343.633C378.013 344.062 376.205 345.229 374.972 346.911C373.83 348.779 373.066 350.855 372.724 353.02C372.362 354.812 372.106 356.625 371.957 358.448C371.539 363.167 371.313 368.298 372.608 372.894C372.738 373.355 373.389 373.059 373.293 372.605C372.155 368.601 372.292 364.137 372.608 359.995C372.854 356.294 373.259 352.325 374.759 348.913C375.174 347.949 375.778 347.079 376.537 346.356C377.295 345.633 378.191 345.072 379.172 344.706C380.152 344.34 381.196 344.177 382.241 344.228C383.286 344.278 384.31 344.541 385.251 344.999C386.279 345.476 387.162 346.218 387.811 347.15C388.46 348.082 388.851 349.17 388.944 350.303C389.095 353.054 387.574 355.806 386.813 358.372C385.36 363.29 384.935 368.546 387.676 373.024C387.923 373.423 388.485 372.969 388.238 372.57L388.177 372.55Z" fill="#F5A824"/>
<path d="M386.155 374.042C385.146 371.215 384.423 368.293 383.997 365.32C383.81 363.813 383.827 362.289 384.045 360.786C384.324 359.296 384.784 357.845 385.415 356.466C386.327 354.265 387.217 351.871 386.491 349.477C386.178 348.48 385.536 347.619 384.67 347.037C383.804 346.456 382.766 346.188 381.728 346.279C379.138 346.416 377.13 348.445 376.041 350.798C376.017 350.842 376.002 350.89 375.997 350.94C375.993 350.99 375.999 351.04 376.015 351.087C376.031 351.135 376.056 351.178 376.09 351.215C376.124 351.252 376.165 351.281 376.211 351.301C376.257 351.32 376.306 351.33 376.356 351.33C376.406 351.329 376.455 351.318 376.5 351.298C376.545 351.277 376.586 351.247 376.619 351.209C376.652 351.172 376.677 351.128 376.692 351.08C377.672 348.961 379.474 347.125 381.824 347.015C384.175 346.905 385.984 348.707 386.052 351.211C386.121 353.715 384.641 356.116 383.873 358.516C383.167 360.884 382.989 363.378 383.352 365.822C383.81 368.72 384.535 371.568 385.518 374.331C385.662 374.779 386.313 374.49 386.169 374.042H386.155Z" fill="#F5A824"/>
<path d="M376.205 363.401C376.205 367.693 377.459 371.759 378.494 375.852C378.611 376.306 379.31 376.202 379.179 375.742C378.172 371.731 376.87 367.707 376.891 363.497C376.891 363.022 376.205 362.926 376.205 363.401Z" fill="#F5A824"/>
<path d="M383.551 374.62C381.803 370.433 381.097 365.88 381.496 361.357C381.702 359.105 382.186 356.887 382.935 354.754C383.531 353.068 384.504 350.805 382.935 349.353C381.365 347.902 379.508 349.574 378.638 351.046C378.405 351.452 378.96 351.906 379.193 351.493C379.721 350.592 380.646 349.333 381.804 349.56C383.476 349.897 383.12 352.119 382.702 353.309C381.839 355.638 381.24 358.056 380.913 360.518C380.333 365.407 381.018 370.363 382.9 374.909C382.938 375 383.011 375.073 383.102 375.11C383.194 375.148 383.296 375.147 383.387 375.109C383.478 375.07 383.55 374.997 383.587 374.906C383.624 374.814 383.624 374.711 383.586 374.62H383.551Z" fill="#F5A824"/>
<path d="M381.598 374.882C378.638 367.714 378.974 359.748 381.242 352.339C381.379 351.885 380.728 351.596 380.591 352.05C378.261 359.617 377.905 367.817 380.947 375.171C380.988 375.253 381.059 375.316 381.145 375.347C381.231 375.378 381.326 375.374 381.41 375.337C381.493 375.3 381.559 375.232 381.595 375.147C381.63 375.062 381.631 374.967 381.598 374.882V374.882Z" fill="#F5A824"/>
<path d="M375.678 374.386C372.868 365.354 375.129 353.715 375.157 353.598L375.712 353.715C375.712 353.825 373.45 365.32 376.212 374.194L375.678 374.386Z" fill="#F5A824"/>
<path d="M378.09 352.298C376.801 355.102 376.135 358.153 376.137 361.24C376.137 361.715 376.822 361.605 376.822 361.137C376.828 358.173 377.478 355.245 378.727 352.559C378.751 352.515 378.766 352.467 378.771 352.417C378.775 352.367 378.769 352.317 378.753 352.27C378.737 352.223 378.711 352.179 378.678 352.142C378.644 352.106 378.603 352.076 378.557 352.057C378.511 352.037 378.462 352.027 378.412 352.027C378.362 352.028 378.313 352.039 378.268 352.06C378.222 352.08 378.182 352.11 378.149 352.148C378.116 352.185 378.091 352.229 378.076 352.277L378.09 352.298Z" fill="#F5A824"/>
<path d="M375.643 351.768L375.527 352.153C375.516 352.203 375.516 352.255 375.527 352.305C375.517 352.35 375.517 352.397 375.527 352.442C375.54 352.488 375.566 352.529 375.602 352.559C375.631 352.596 375.669 352.624 375.712 352.642H375.801C375.861 352.658 375.925 352.658 375.986 352.642L376.061 352.594C376.113 352.555 376.153 352.502 376.178 352.442L376.294 352.057C376.304 352.009 376.304 351.96 376.294 351.912C376.305 351.865 376.305 351.816 376.294 351.768C376.28 351.723 376.254 351.683 376.219 351.651C376.189 351.616 376.151 351.588 376.109 351.569H376.013C375.956 351.548 375.893 351.548 375.835 351.569L375.753 351.617C375.705 351.655 375.668 351.705 375.643 351.761V351.768Z" fill="#F5A824"/>
<path d="M372.21 343.19C371.033 344.281 370.089 345.601 369.435 347.07C369.402 347.155 369.403 347.25 369.439 347.335C369.474 347.42 369.54 347.488 369.624 347.525C369.707 347.562 369.802 347.565 369.888 347.534C369.974 347.503 370.045 347.441 370.086 347.359C370.687 346.002 371.556 344.783 372.642 343.775C372.985 343.458 372.553 342.866 372.21 343.19V343.19Z" fill="#F5A824"/>
<path d="M397.798 350.86V351.458C397.788 351.506 397.788 351.555 397.798 351.603C397.806 351.65 397.825 351.695 397.853 351.734C397.909 351.808 397.993 351.858 398.086 351.871C398.132 351.877 398.179 351.873 398.223 351.86C398.268 351.847 398.31 351.825 398.346 351.796C398.384 351.766 398.416 351.728 398.439 351.686C398.463 351.643 398.478 351.596 398.483 351.548V350.949C398.497 350.902 398.497 350.852 398.483 350.805C398.472 350.757 398.451 350.713 398.421 350.674C398.394 350.637 398.359 350.605 398.319 350.581C398.279 350.558 398.234 350.543 398.188 350.537C398.142 350.53 398.095 350.534 398.05 350.547C398.005 350.56 397.964 350.582 397.928 350.612C397.889 350.642 397.857 350.679 397.833 350.722C397.81 350.764 397.795 350.811 397.791 350.86H397.798Z" fill="#F5A824"/>
<path d="M392.076 326.659C390.603 325.961 389.059 325.426 387.471 325.063C387.286 325.015 387.094 325.208 387.073 325.387C387.061 325.481 387.086 325.577 387.142 325.654C387.198 325.73 387.282 325.783 387.375 325.8C388.899 326.153 390.381 326.67 391.795 327.34C392.206 327.547 392.48 326.866 392.076 326.653V326.659Z" fill="#F5A824"/>
<path d="M362.925 356.439C362.782 357.635 362.711 358.839 362.713 360.044C362.718 360.09 362.732 360.136 362.755 360.177C362.778 360.218 362.809 360.254 362.846 360.283C362.883 360.312 362.925 360.333 362.971 360.345C363.016 360.357 363.064 360.36 363.11 360.353C363.205 360.336 363.29 360.283 363.348 360.205C363.405 360.127 363.43 360.03 363.418 359.933C363.415 358.797 363.484 357.662 363.624 356.535C363.638 356.487 363.641 356.436 363.634 356.386C363.627 356.337 363.609 356.289 363.581 356.247C363.554 356.205 363.518 356.169 363.476 356.142C363.434 356.115 363.386 356.097 363.337 356.09C363.287 356.084 363.237 356.087 363.189 356.102C363.141 356.116 363.096 356.14 363.058 356.174C363.021 356.207 362.99 356.247 362.97 356.293C362.949 356.339 362.939 356.389 362.939 356.439H362.925Z" fill="#F5A824"/>
<path d="M360.54 353.839L360.396 354.527C360.389 354.575 360.391 354.624 360.402 354.671C360.414 354.719 360.435 354.763 360.465 354.802C360.492 354.839 360.527 354.871 360.567 354.895C360.607 354.918 360.652 354.933 360.698 354.939C360.744 354.947 360.791 354.945 360.835 354.933C360.88 354.921 360.922 354.9 360.958 354.87C361.03 354.805 361.078 354.718 361.095 354.623L361.239 353.935C361.247 353.888 361.245 353.84 361.234 353.793C361.223 353.747 361.203 353.703 361.175 353.665C361.147 353.626 361.112 353.594 361.071 353.569C361.03 353.545 360.985 353.529 360.938 353.522C360.892 353.515 360.844 353.519 360.799 353.532C360.755 353.545 360.713 353.567 360.677 353.598C360.605 353.659 360.556 353.745 360.54 353.839V353.839Z" fill="#F5A824"/>
<path d="M372.786 313.926L374.526 313.369C374.613 313.328 374.682 313.256 374.717 313.166C374.753 313.077 374.753 312.977 374.718 312.888C374.683 312.8 374.615 312.731 374.529 312.693C374.443 312.656 374.346 312.654 374.259 312.688L372.519 313.245C372.431 313.286 372.363 313.358 372.327 313.448C372.292 313.537 372.292 313.637 372.327 313.727C372.362 313.814 372.43 313.884 372.515 313.921C372.601 313.958 372.699 313.96 372.786 313.926V313.926Z" fill="#F5A824"/>
<path d="M402.279 350.647C402.458 352.02 402.421 353.413 402.17 354.774C402.156 354.822 402.152 354.873 402.16 354.923C402.167 354.973 402.185 355.02 402.212 355.062C402.24 355.105 402.275 355.14 402.318 355.167C402.36 355.194 402.407 355.212 402.457 355.219C402.507 355.226 402.557 355.222 402.605 355.208C402.653 355.193 402.697 355.169 402.735 355.136C402.773 355.103 402.803 355.062 402.824 355.016C402.844 354.97 402.855 354.921 402.855 354.87C403.113 353.452 403.152 352.002 402.971 350.571C402.976 350.517 402.969 350.463 402.949 350.412C402.93 350.362 402.9 350.316 402.861 350.279C402.821 350.242 402.774 350.215 402.723 350.199C402.671 350.182 402.617 350.178 402.564 350.186C402.51 350.194 402.46 350.214 402.415 350.245C402.371 350.275 402.334 350.316 402.307 350.363C402.28 350.41 402.265 350.462 402.261 350.516C402.257 350.57 402.266 350.624 402.286 350.674L402.279 350.647Z" fill="#F5A824"/>
<path d="M403.801 343.699C403.862 344.112 403.917 344.517 403.979 344.93C403.984 344.977 403.998 345.023 404.021 345.064C404.044 345.106 404.075 345.142 404.112 345.172C404.149 345.201 404.191 345.223 404.236 345.236C404.282 345.249 404.329 345.252 404.376 345.247C404.47 345.227 404.553 345.173 404.61 345.096C404.667 345.018 404.693 344.923 404.685 344.827L404.5 343.596C404.494 343.549 404.48 343.503 404.457 343.461C404.434 343.42 404.404 343.383 404.367 343.354C404.33 343.325 404.287 343.303 404.242 343.29C404.196 343.277 404.149 343.273 404.102 343.279C404.009 343.299 403.926 343.353 403.871 343.431C403.815 343.508 403.79 343.604 403.801 343.699V343.699Z" fill="#F5A824"/>
<path d="M354.428 364.983C350.857 369.765 347.984 375.035 345.896 380.633L356.86 390.738C356.86 390.738 361.459 385.31 363.288 380.633C364.144 379.3 365.341 378.222 366.754 377.513C368.167 376.804 369.744 376.489 371.319 376.601L376.678 377.111C376.878 377.13 377.079 377.097 377.262 377.015C377.446 376.933 377.604 376.804 377.723 376.642C377.842 376.48 377.917 376.289 377.94 376.089C377.964 375.889 377.935 375.686 377.857 375.501V375.501C377.754 375.252 377.567 375.047 377.329 374.923C374.789 373.704 372.034 373.003 369.223 372.859C369.169 372.859 369.117 372.84 369.077 372.804C369.037 372.769 369.011 372.72 369.005 372.667C368.998 372.614 369.011 372.56 369.041 372.515C369.071 372.471 369.116 372.439 369.168 372.426C370.648 371.979 373.862 371.401 379.268 372.268C379.525 372.309 379.787 372.286 380.033 372.201C380.278 372.116 380.498 371.971 380.675 371.78C380.851 371.589 380.978 371.357 381.043 371.105C381.108 370.852 381.111 370.588 381.05 370.335V370.335C380.992 370.104 380.884 369.89 380.732 369.707C380.58 369.525 380.389 369.38 380.173 369.282C378.316 368.436 373.039 366.379 368.181 367.776C368.181 367.776 368.14 365.533 378.611 365.712H381.016C381.47 365.712 381.906 365.531 382.227 365.208C382.548 364.886 382.729 364.448 382.729 363.992V363.992C382.73 363.556 382.566 363.135 382.269 362.816C381.973 362.496 381.566 362.302 381.132 362.272C376.41 361.933 371.67 361.933 366.947 362.272C366.892 362.277 366.837 362.262 366.791 362.231C366.745 362.199 366.712 362.153 366.696 362.099C366.681 362.045 366.685 361.988 366.707 361.937C366.729 361.886 366.768 361.844 366.817 361.818C368.77 360.821 372.985 358.908 377.144 358.379C377.548 358.335 377.92 358.142 378.191 357.839C378.462 357.535 378.611 357.142 378.611 356.735V356.735C378.611 356.506 378.565 356.279 378.474 356.069C378.384 355.859 378.251 355.67 378.084 355.514C377.918 355.358 377.721 355.238 377.506 355.161C377.291 355.085 377.063 355.054 376.836 355.07C372.368 355.38 360.554 356.996 354.428 364.983Z" fill="#F4BBA8"/>
<path d="M356.881 392.279C335.741 421.453 308.913 437.612 308.913 437.612C295.523 447.49 288.67 447.545 288.67 447.545C274.013 448.866 250.029 393.242 250.029 393.242C246.856 386.143 245.424 380.722 244.992 376.601C243.971 367.026 248.309 364.542 248.309 364.542C255.956 355.868 263.72 369.131 263.72 369.131L289.856 412.29C293.179 409.635 295.831 414.464 295.831 414.464C298.867 411.086 311.037 404.579 311.037 404.579C326.887 395.429 344.183 379.016 344.183 379.016C351.721 380.619 354.846 384.519 356.093 387.649C356.684 389.118 356.953 390.697 356.881 392.279Z" fill="#F5A824"/>
<path opacity="0.3" d="M356.881 392.279C335.741 421.453 308.913 437.612 308.913 437.612C295.523 447.49 288.67 447.545 288.67 447.545C274.013 448.866 250.029 393.242 250.029 393.242C246.856 386.143 245.424 380.722 244.992 376.601C243.971 367.026 248.309 364.542 248.309 364.542C255.956 355.868 263.72 369.131 263.72 369.131L289.856 412.29C293.179 409.635 295.831 414.464 295.831 414.464C298.867 411.086 311.037 404.579 311.037 404.579C326.887 395.429 344.183 379.016 344.183 379.016C351.721 380.619 354.846 384.519 356.093 387.649C356.684 389.118 356.953 390.697 356.881 392.279Z" fill="white"/>
<path opacity="0.3" d="M356.881 392.279C335.741 421.453 308.913 437.612 308.913 437.612C295.523 447.49 288.671 447.545 288.671 447.545C274.013 448.866 250.029 393.242 250.029 393.242C246.856 386.143 245.424 380.722 244.992 376.601C244.992 376.601 277.199 442.187 284.168 429.646C284.168 429.646 289.164 416.39 288.691 426.516C288.691 426.516 285.1 444.113 303.595 433.987C303.595 433.987 326.675 427.369 356.086 387.642C356.681 389.112 356.952 390.694 356.881 392.279V392.279Z" fill="white"/>
</svg>
